<svg width="335" height="296" viewBox="0 0 335 296" fill="none" xmlns="http://www.w3.org/2000/svg">
<g filter="url(#filter0_d_2355_8065)">
<rect x="40" y="36" width="220" height="177" rx="15" fill="#26242E"/>
<rect x="62" y="121.9" width="176" height="29.7" rx="7.15" fill="#444249"/>
<path opacity="0.4" d="M121.27 140.15V139.463H118.304V139.415L119.726 137.944C120.832 136.807 121.155 136.266 121.161 135.574C121.155 134.601 120.352 133.842 119.222 133.842C118.098 133.842 117.247 134.583 117.253 135.683H117.988C117.988 134.984 118.456 134.516 119.198 134.516C119.897 134.516 120.431 134.929 120.437 135.574C120.431 136.145 120.079 136.564 119.344 137.348L117.223 139.585L117.229 140.15H121.27ZM124.429 140.235C125.809 140.235 126.605 139.074 126.605 137.038C126.605 135.021 125.797 133.842 124.429 133.842C123.062 133.842 122.254 135.021 122.254 137.038C122.254 139.074 123.05 140.235 124.429 140.235ZM124.429 139.548C123.53 139.548 123.007 138.649 123.007 137.038C123.007 135.428 123.536 134.516 124.429 134.516C125.323 134.516 125.851 135.428 125.851 137.038C125.851 138.649 125.329 139.548 124.429 139.548ZM131.677 140.15V139.463H128.711V139.415L130.133 137.944C131.239 136.807 131.562 136.266 131.568 135.574C131.562 134.601 130.759 133.842 129.629 133.842C128.505 133.842 127.654 134.583 127.66 135.683H128.395C128.395 134.984 128.863 134.516 129.605 134.516C130.304 134.516 130.838 134.929 130.844 135.574C130.838 136.145 130.486 136.564 129.751 137.348L127.63 139.585L127.636 140.15H131.677ZM136.842 140.15V139.463H133.876V139.415L135.298 137.944C136.404 136.807 136.726 136.266 136.733 135.574C136.726 134.601 135.924 133.842 134.794 133.842C133.67 133.842 132.819 134.583 132.825 135.683H133.56C133.56 134.984 134.028 134.516 134.77 134.516C135.468 134.516 136.003 134.929 136.009 135.574C136.003 136.145 135.651 136.564 134.915 137.348L132.794 139.585L132.8 140.15H136.842ZM144.024 138.874V133.216H143.35V134.218H141.144V134.765H143.35V135.677H141.144V136.224H143.35V138.874H144.024ZM142.055 136.88C140.889 137.099 139.874 137.157 138.822 137.16V133.769H138.148V137.731H138.725C139.843 137.725 140.882 137.676 142.128 137.445L142.055 136.88ZM139.782 138.387H139.102V140.679H144.231V140.12H139.782V138.387ZM149.201 133.927L147.652 134.96V135.738L149.165 134.735H149.201V140.15H149.979V133.927H149.201ZM155.679 140.15V139.463H152.714V139.415L154.136 137.944C155.242 136.807 155.564 136.266 155.57 135.574C155.564 134.601 154.762 133.842 153.631 133.842C152.507 133.842 151.656 134.583 151.662 135.683H152.398C152.398 134.984 152.866 134.516 153.607 134.516C154.306 134.516 154.841 134.929 154.847 135.574C154.841 136.145 154.488 136.564 153.753 137.348L151.632 139.585L151.638 140.15H155.679ZM160.601 137.294H162.145V137.719H162.825V133.216H162.145V136.85H160.601V137.294ZM158.997 135.653C160.133 135.653 160.887 135.227 160.893 134.51C160.887 133.805 160.133 133.362 158.997 133.362C157.842 133.362 157.095 133.805 157.095 134.51C157.095 135.227 157.842 135.653 158.997 135.653ZM158.997 133.829C159.756 133.829 160.255 134.103 160.255 134.51C160.255 134.917 159.756 135.191 158.997 135.191C158.225 135.191 157.727 134.917 157.733 134.51C157.727 134.103 158.225 133.829 158.997 133.829ZM159.282 137.743V136.552C160.042 136.513 160.82 136.449 161.567 136.345L161.525 135.902C159.872 136.084 157.982 136.102 156.499 136.096L156.584 136.601C157.204 136.604 157.897 136.601 158.62 136.576V137.743H159.282ZM158.365 139.573H162.825V137.992H157.672V138.479H162.157V139.105H157.702V140.764H163.081V140.259H158.365V139.573ZM170.658 140.15V139.463H167.693V139.415L169.115 137.944C170.221 136.807 170.543 136.266 170.549 135.574C170.543 134.601 169.741 133.842 168.61 133.842C167.486 133.842 166.635 134.583 166.641 135.683H167.377C167.377 134.984 167.844 134.516 168.586 134.516C169.285 134.516 169.82 134.929 169.826 135.574C169.82 136.145 169.467 136.564 168.732 137.348L166.611 139.585L166.617 140.15H170.658ZM173.812 140.235C175.051 140.235 175.957 139.366 175.957 138.163C175.957 136.953 175.082 136.078 173.897 136.078C173.459 136.078 173.04 136.224 172.766 136.437H172.699L172.93 134.613H175.659V133.927H172.286L171.849 137.33H172.596C172.827 136.929 173.234 136.765 173.757 136.771C174.596 136.777 175.203 137.373 175.203 138.181C175.203 138.965 174.62 139.554 173.812 139.554C173.137 139.554 172.596 139.141 172.541 138.588H171.788C171.836 139.542 172.687 140.235 173.812 140.235ZM182.393 133.21V137.129H183.067V133.21H182.393ZM180.904 135.185C180.898 134.188 180.065 133.495 178.923 133.489C177.768 133.495 176.935 134.188 176.935 135.185C176.935 136.181 177.768 136.868 178.923 136.868C180.065 136.868 180.898 136.181 180.904 135.185ZM177.598 135.185C177.592 134.522 178.157 134.054 178.923 134.06C179.682 134.054 180.247 134.522 180.247 135.185C180.247 135.853 179.682 136.315 178.923 136.315C178.157 136.315 177.592 135.853 177.598 135.185ZM178.777 139.342H183.067V137.5H178.096V138.047H182.399V138.831H178.12V140.745H183.341V140.199H178.777V139.342Z" fill="white"/>
<rect x="74.5128" y="132.487" width="10.175" height="9.35" rx="2.8875" stroke="#C1C1C1" stroke-width="0.825"/>
<rect x="76.5753" y="131.525" width="0.55" height="1.925" rx="0.275" stroke="#C1C1C1" stroke-width="0.55"/>
<rect x="82.0753" y="131.525" width="0.55" height="1.925" rx="0.275" stroke="#C1C1C1" stroke-width="0.55"/>
<rect x="79.3253" y="131.525" width="0.55" height="1.925" rx="0.275" stroke="#C1C1C1" stroke-width="0.55"/>
<rect x="80.1501" y="135.65" width="1.1" height="1.1" rx="0.55" fill="#C1C1C1"/>
<rect x="77.9502" y="137.85" width="1.1" height="1.1" rx="0.55" fill="#C1C1C1"/>
<rect x="80.1501" y="137.85" width="1.1" height="1.1" rx="0.55" fill="#C1C1C1"/>
<rect x="77.9502" y="135.65" width="1.1" height="1.1" rx="0.55" fill="#C1C1C1"/>
<rect x="62" y="160.4" width="176" height="29.7" rx="7.15" fill="#444249"/>
<path opacity="0.4" d="M136.258 178.65L133.979 172.427H133.164L130.885 178.65H131.7L132.319 176.9H134.823L135.443 178.65H136.258ZM133.547 173.429H133.596L134.583 176.219H132.559L133.547 173.429ZM137.1 178.65H137.83V173.946H137.884L139.817 178.65H140.504L142.436 173.952H142.497V178.65H143.226V172.427H142.297L140.2 177.55H140.127L138.03 172.427H137.1V178.65ZM148.13 172.427L146.58 173.46V174.238L148.094 173.235H148.13V178.65H148.908V172.427H148.13ZM154.608 178.65V177.963H151.642V177.915L153.064 176.444C154.171 175.307 154.493 174.766 154.499 174.074C154.493 173.101 153.69 172.342 152.56 172.342C151.436 172.342 150.585 173.083 150.591 174.183H151.326C151.326 173.484 151.794 173.016 152.536 173.016C153.235 173.016 153.769 173.429 153.776 174.074C153.769 174.645 153.417 175.064 152.682 175.848L150.561 178.085L150.567 178.65H154.608ZM156.266 174.712C156.57 174.712 156.819 174.463 156.819 174.159C156.819 173.855 156.57 173.606 156.266 173.606C155.962 173.606 155.707 173.855 155.713 174.159C155.707 174.463 155.962 174.712 156.266 174.712ZM156.266 177.854C156.57 177.854 156.819 177.605 156.819 177.301C156.819 176.997 156.57 176.748 156.266 176.748C155.962 176.748 155.707 176.997 155.713 177.301C155.707 177.605 155.962 177.854 156.266 177.854ZM160.002 178.735C161.381 178.735 162.177 177.574 162.177 175.538C162.177 173.521 161.369 172.342 160.002 172.342C158.634 172.342 157.826 173.521 157.826 175.538C157.826 177.574 158.622 178.735 160.002 178.735ZM160.002 178.048C159.102 178.048 158.58 177.149 158.58 175.538C158.58 173.928 159.108 173.016 160.002 173.016C160.895 173.016 161.424 173.928 161.424 175.538C161.424 177.149 160.901 178.048 160.002 178.048ZM165.244 178.735C166.624 178.735 167.42 177.574 167.42 175.538C167.42 173.521 166.611 172.342 165.244 172.342C163.877 172.342 163.068 173.521 163.068 175.538C163.068 177.574 163.864 178.735 165.244 178.735ZM165.244 178.048C164.345 178.048 163.822 177.149 163.822 175.538C163.822 173.928 164.351 173.016 165.244 173.016C166.137 173.016 166.666 173.928 166.666 175.538C166.666 177.149 166.143 178.048 165.244 178.048Z" fill="white"/>
<rect x="75.0626" y="172.087" width="9.075" height="9.075" rx="4.5375" stroke="#C1C1C1" stroke-width="0.825"/>
<path d="M79.6003 174.975V176.625L80.7003 178.275" stroke="#C1C1C1" stroke-width="0.825" stroke-linecap="round"/>
<path d="M76.3 171.717C76.5457 171.538 76.6039 171.185 76.3639 170.999C76.1726 170.851 75.9573 170.743 75.7333 170.686C75.3428 170.587 74.9577 170.652 74.6627 170.867C74.3677 171.081 74.1869 171.427 74.1602 171.829C74.1448 172.06 74.1809 172.298 74.263 172.526C74.3659 172.811 74.7194 172.865 74.9651 172.686L75.6325 172.201L76.3 171.717Z" fill="#C1C1C1"/>
<path d="M84.2602 172.653C84.5059 172.831 84.8593 172.778 84.9623 172.492C85.0444 172.264 85.0805 172.026 85.0651 171.796C85.0384 171.394 84.8576 171.047 84.5626 170.833C84.2676 170.619 83.8824 170.554 83.4919 170.653C83.268 170.709 83.0527 170.817 82.8613 170.966C82.6214 171.152 82.6796 171.505 82.9253 171.683L83.5927 172.168L84.2602 172.653Z" fill="#C1C1C1"/>
<path d="M69.403 63.99H68.4876V60.3778H67.2037V69.5128H68.4876V65.0991H69.403V69.9914H70.721V60.2068H69.403V63.99ZM64.0587 61.2932H62.6837V67.6022H63.3484C64.3626 67.606 65.4831 67.5414 66.7859 67.3135L66.6492 66.1323C65.7072 66.3146 64.845 66.3829 64.0587 66.4057V61.2932ZM79.5099 63.9786V60.2068H78.1387V69.9914H79.5099V65.1371H80.9533V63.9786H79.5099ZM75.3963 60.9627H74.0251V62.4251C74.0213 64.2407 73.2389 66.1095 71.5866 66.8691L72.426 67.982C73.5351 67.4313 74.291 66.3981 74.7164 65.1333C75.1229 66.3108 75.8331 67.2756 76.8777 67.7921L77.7057 66.702C76.137 65.9423 75.3887 64.1761 75.3963 62.4251V60.9627ZM89.0624 60.222H87.6874V66.0753H89.0624V63.6253H90.3842V62.4972H89.0624V60.222ZM86.9771 64.2863C85.735 64.5028 84.6373 64.5635 83.0268 64.5711V63.7089H86.1414V60.7994H81.6442V61.8781H84.8044V62.6872H81.6594V65.6916H82.4798C84.4664 65.6954 85.7236 65.6423 87.1214 65.3764L86.9771 64.2863ZM85.8338 66.2652C83.7675 66.269 82.4874 66.9755 82.4874 68.1492C82.4874 69.3077 83.7675 69.98 85.8338 69.9762C87.8697 69.98 89.1535 69.3077 89.1535 68.1492C89.1535 66.9755 87.8697 66.269 85.8338 66.2652ZM85.8338 68.9544C84.5309 68.9582 83.832 68.6847 83.8396 68.1492C83.832 67.606 84.5309 67.3287 85.8338 67.3287C87.1252 67.3287 87.8013 67.606 87.8013 68.1492C87.8013 68.6847 87.1252 68.9582 85.8338 68.9544ZM100.447 60.2068V67.4997H101.746V60.2068H100.447ZM95.6347 65.8512C96.7476 65.855 97.6099 65.1067 97.8378 63.9862H98.5025V67.1958H99.7635V60.3626H98.5025V62.8657H97.8492C97.6479 61.692 96.7704 60.9323 95.6347 60.9323C94.3319 60.9323 93.3861 61.9275 93.3899 63.3936C93.3861 64.8332 94.3319 65.855 95.6347 65.8512ZM94.613 63.3936C94.6092 62.5846 95.0308 62.0946 95.6347 62.0946C96.2273 62.0946 96.6641 62.5846 96.6717 63.3936C96.6641 64.2027 96.2273 64.6699 95.6347 64.6699C95.0308 64.6699 94.6092 64.2027 94.613 63.3936ZM96.4894 66.5539H95.122V69.8204H101.997V68.7151H96.4894V66.5539ZM103.713 63.9862V65.0611H110.923V63.9862H109.719V61.7566H111.006V60.6626H103.66V61.7566H104.925V63.9862H103.713ZM106.296 63.9862V61.7566H108.363V63.9862H106.296ZM102.844 65.8892V67.0059H106.627V69.9762H107.983V67.0059H111.785V65.8892H102.844ZM119.187 69.9914H120.574V60.2068H119.187V69.9914ZM117.269 62.2162H118.139V61.1108H112.601V62.2162H113.471V66.6146C113.076 66.6222 112.696 66.6222 112.339 66.6222L112.468 67.739C114.257 67.7352 116.521 67.6972 118.602 67.3553L118.53 66.3374C118.12 66.3867 117.698 66.4285 117.269 66.4627V62.2162ZM115.936 62.2162V66.5463C115.552 66.5653 115.169 66.5767 114.793 66.5881V62.2162H115.936ZM128.675 65.6992H130.035V60.2068H128.675V65.6992ZM127.843 63.6671C126.537 63.9482 125.287 64.0584 123.802 64.0773V60.7766H122.427V65.2206H123.274C125.029 65.2169 126.491 65.0991 128.011 64.7838L127.843 63.6671ZM130.035 69.8698V66.0981H123.51V69.8698H130.035ZM128.694 67.1692V68.7949H124.858V67.1692H128.694ZM138.171 60.2068V70.0142H139.557V60.2068H138.171ZM134.247 60.8981C132.75 60.8981 131.657 62.2503 131.66 64.3774C131.657 66.5273 132.75 67.8719 134.247 67.8719C135.725 67.8719 136.818 66.5273 136.822 64.3774C136.818 62.2503 135.725 60.8981 134.247 60.8981ZM134.247 62.1364C134.991 62.1364 135.497 62.9302 135.497 64.3774C135.497 65.8398 134.991 66.6298 134.247 66.6298C133.487 66.6298 132.978 65.8398 132.986 64.3774C132.978 62.9302 133.487 62.1364 134.247 62.1364ZM162.446 80.6937C164.699 80.6937 165.998 80.1088 166.002 79.0148C165.998 77.9399 164.699 77.3512 162.446 77.3512C160.19 77.3512 158.883 77.9399 158.887 79.0148C158.883 80.1088 160.19 80.6937 162.446 80.6937ZM162.446 78.3539C163.897 78.3501 164.589 78.5856 164.589 79.0148C164.589 79.4972 163.897 79.6834 162.446 79.6872C161.014 79.6834 160.315 79.4972 160.323 79.0148C160.315 78.5856 161.014 78.3501 162.446 78.3539ZM157.995 82.2434H166.913V81.1571H157.995V82.2434ZM165.823 85.3011V82.8056H159.024V83.8122H164.471V84.3439H159.032V86.923H166.077V85.8898H160.376V85.3011H165.823ZM178.275 84.4465V77.222H176.908V79.2997H175.077V80.4088H176.908V84.4465H178.275ZM173.026 80.9938C173.44 81.8978 174.154 82.6195 175.187 82.9993L175.932 81.932C174.371 81.4116 173.694 80.1544 173.694 78.8895V77.8108H172.312V78.8781C172.308 80.2797 171.605 81.6167 169.976 82.1523L170.713 83.231C171.845 82.8208 172.608 82.0155 173.026 80.9938ZM173.151 83.6868H171.765V86.8204H178.484V85.7151H173.151V83.6868ZM186.643 79.6074H185.792V77.393H184.515V83.1133H185.792V80.7089H186.643V83.1816H187.942V77.222H186.643V79.6074ZM183.991 81.461C183.083 81.6205 182.282 81.6661 181.2 81.6813V80.8115H183.653V79.7707H181.2V78.9617H183.748V77.864H179.881V82.8018H180.546C182.028 82.8018 182.981 82.7676 184.124 82.5663L183.991 81.461ZM186.578 84.6858V86.9914H187.942V83.5881H181.184V84.6858H186.578ZM196.203 81.1913H195.409V77.4006H194.125V86.5698H195.409V82.2852H196.203V86.9914H197.505V77.2068H196.203V81.1913ZM190.741 77.4841V78.7034H189.031V79.7935H193.764V78.7034H192.089V77.4841H190.741ZM191.42 80.2341C190.175 80.2341 189.263 81.1951 189.267 82.5473C189.263 83.9185 190.175 84.8833 191.42 84.8833C192.67 84.8833 193.563 83.9185 193.566 82.5473C193.563 81.1951 192.67 80.2341 191.42 80.2341ZM191.42 83.721C190.854 83.7248 190.467 83.2956 190.471 82.5473C190.467 81.8142 190.854 81.3698 191.42 81.3698C191.971 81.3698 192.359 81.8142 192.362 82.5473C192.359 83.2956 191.971 83.7248 191.42 83.721ZM202.034 82.0383C203.736 81.8066 204.959 81.0735 205.552 80.0708C206.144 81.0735 207.371 81.8066 209.088 82.0383L209.585 80.9634C207.572 80.7241 206.49 79.7555 206.361 78.7983H209.209V77.7272H201.898V78.7983H204.75C204.606 79.7555 203.519 80.7241 201.529 80.9634L202.034 82.0383ZM201.092 82.6043V83.702H204.845V86.9914H206.201V83.702H210.011V82.6043H201.092ZM217.759 86.9914H219.069V77.2068H217.759V86.9914ZM214.477 80.5114V81.6281H215.742V86.5394H217.026V77.3588H215.742V80.5114H214.477ZM213.729 78.0501H212.4V79.7365C212.4 81.3926 211.864 83.1133 210.417 84.0097L211.252 85.0276C212.137 84.4883 212.726 83.5615 213.072 82.4561C213.383 83.4551 213.919 84.2945 214.762 84.8035L215.51 83.7476C214.17 82.8892 213.729 81.2559 213.729 79.672V78.0501ZM227.061 82.3042C227.798 81.8484 228.242 81.1647 228.242 80.3139C228.242 78.7338 226.677 77.6892 224.558 77.6892C222.438 77.6892 220.888 78.7338 220.892 80.3139C220.888 81.1761 221.344 81.8712 222.1 82.327V84.7276H220.106V85.8443H229.047V84.7276H227.061V82.3042ZM224.558 78.7718C225.944 78.7642 226.886 79.3339 226.89 80.3139C226.886 81.2749 225.944 81.8636 224.558 81.8674C223.16 81.8636 222.241 81.2749 222.241 80.3139C222.241 79.3339 223.16 78.7642 224.558 78.7718ZM223.456 82.8246C223.802 82.893 224.17 82.9271 224.558 82.9271C224.953 82.9271 225.325 82.8892 225.674 82.8246V84.7276H223.456V82.8246ZM230.874 86.095C231.352 86.095 231.77 85.6923 231.774 85.1948C231.77 84.701 231.352 84.2983 230.874 84.2983C230.376 84.2983 229.962 84.701 229.97 85.1948C229.962 85.6923 230.376 86.095 230.874 86.095Z" fill="white"/>
<path d="M70.5311 84.4123V77.2068H69.1637V78.9313H67.9216V80.0328H69.1637V80.876H67.9216V82.0003H69.1637V84.4123H70.5311ZM67.895 81.8902C67.5874 81.9244 67.2683 81.9548 66.9416 81.9776V79.0073H67.7431V77.9057H62.5394V79.0073H63.3256V82.1029C62.961 82.1067 62.6115 82.1067 62.2887 82.1067L62.433 83.231C63.9789 83.2272 66.1212 83.1854 67.9482 82.8892L67.895 81.8902ZM65.6312 79.0073V82.0497C65.3046 82.0649 64.9779 82.0725 64.655 82.0801V79.0073H65.6312ZM65.4109 83.8729H64.0283V86.8204H70.7628V85.7151H65.4109V83.8729ZM78.5945 86.9914H79.9809V77.2068H78.5945V86.9914ZM75.5825 79.2731H77.6298V78.1526H72.1108V79.2731H74.1885V79.8733C74.1847 81.5331 73.3452 83.345 71.7271 84.0704L72.5058 85.1454C73.6605 84.6174 74.4695 83.5463 74.9101 82.2586C75.3508 83.4437 76.1446 84.4161 77.2993 84.9023L78.0362 83.8273C76.3991 83.1474 75.5825 81.4572 75.5825 79.8733V79.2731ZM82.4077 78.8135V81.1343H89.3244V80.2075H83.7713V79.6834H89.1573V77.3892H82.3925V78.3198H87.7823V78.8135H82.4077ZM81.2947 82.6119H90.236V81.5939H81.2947V82.6119ZM89.1687 85.4075V83.0981H82.3165V84.0477H87.8089V84.5376H82.3241V86.9002H89.4536V85.9658H83.6877V85.4075H89.1687ZM100.155 82.2814H101.515V77.2068H100.155V82.2814ZM98.7418 79.8543C98.7342 78.5439 97.6137 77.6019 96.1247 77.6057C94.6168 77.6019 93.4925 78.5439 93.4963 79.8543C93.4925 81.1647 94.6168 82.0991 96.1247 82.0991C97.6137 82.0991 98.7342 81.1647 98.7418 79.8543ZM94.8257 79.8543C94.8181 79.1478 95.3764 78.73 96.1247 78.7338C96.8654 78.73 97.4124 79.1478 97.4124 79.8543C97.4124 80.5456 96.8654 80.9938 96.1247 80.9938C95.3726 80.9938 94.8181 80.5456 94.8257 79.8543ZM95.8133 85.2099H97.872V82.6727H94.4914V83.6868H96.5235V84.2642H94.4914V86.8812H95.141C96.7211 86.885 97.5681 86.8622 98.5709 86.6609L98.4417 85.6544C97.6289 85.8139 96.93 85.8557 95.8133 85.8633V85.2099ZM100.174 83.7704V86.9572H101.515V82.6727H98.2404V83.7704H100.174ZM107.307 80.6937C109.559 80.6937 110.858 80.1088 110.862 79.0148C110.858 77.9399 109.559 77.3512 107.307 77.3512C105.05 77.3512 103.744 77.9399 103.748 79.0148C103.744 80.1088 105.05 80.6937 107.307 80.6937ZM107.307 78.3539C108.758 78.3501 109.449 78.5856 109.449 79.0148C109.449 79.4972 108.758 79.6834 107.307 79.6872C105.875 79.6834 105.176 79.4972 105.183 79.0148C105.176 78.5856 105.875 78.3501 107.307 78.3539ZM102.855 82.2434H111.773V81.1571H102.855V82.2434ZM110.683 85.3011V82.8056H103.884V83.8122H109.331V84.3439H103.892V86.923H110.938V85.8898H105.237V85.3011H110.683ZM119.36 79.691C119.998 80.7507 121.252 81.5445 122.961 81.7876L123.496 80.6823C121.259 80.405 120.082 79.1288 120.082 77.9741V77.4993H118.642V77.9741C118.638 79.1288 117.465 80.405 115.243 80.6823L115.782 81.7876C117.476 81.5445 118.722 80.7507 119.36 79.691ZM114.897 82.5283V83.645H118.65V86.9914H120.006V83.645H123.815V82.5283H114.897ZM133.746 77.222V82.7448H135.121V77.222H133.746ZM129.761 82.403C131.284 82.4068 132.431 81.4306 132.431 80.067C132.431 78.6844 131.284 77.7158 129.761 77.7158C128.234 77.7158 127.083 78.6844 127.087 80.067C127.083 81.4306 128.234 82.4068 129.761 82.403ZM129.761 78.8667C130.525 78.8667 131.079 79.3149 131.079 80.067C131.079 80.8077 130.525 81.2673 129.761 81.2673C128.979 81.2673 128.42 80.8077 128.428 80.067C128.42 79.3149 128.979 78.8667 129.761 78.8667ZM134.133 83.1474H132.785V83.4817C132.781 84.211 132.428 85.0504 131.619 85.6202C130.825 85.0846 130.494 84.2718 130.494 83.4817V83.1474H129.161V83.4817C129.153 84.4389 128.606 85.4075 127.323 85.8519L127.995 86.8432C128.891 86.5318 129.491 85.943 129.841 85.2137C130.16 85.9658 130.733 86.6001 131.653 86.9306C132.526 86.5887 133.096 85.9354 133.415 85.1796C133.757 85.9354 134.369 86.5318 135.303 86.8432L135.968 85.8519C134.669 85.4492 134.125 84.5073 134.133 83.4817V83.1474ZM138.919 79.8809V77.5563H137.555V80.9558H144.384V79.8809H138.919ZM136.434 83.0753H145.376V82.0003H136.434V83.0753ZM137.464 83.8767V86.7749H144.445V85.6733H138.835V83.8767H137.464ZM156.244 77.2068H154.869V82.0459H156.244V80.1695H157.558V79.0414H156.244V77.2068ZM154.052 80.2531C152.7 80.5114 151.428 80.614 150.254 80.6367V77.6398H148.879V81.7724H149.715C151.101 81.7724 152.601 81.6927 154.208 81.3698L154.052 80.2531ZM156.244 85.1378V82.4485H149.756V83.5159H154.858V84.1084H149.772V86.8812H156.525V85.7835H151.143V85.1378H156.244Z" fill="#84FDD1"/>
<path d="M63.7776 101.558L63.7412 100.56L64.5844 101.098L64.8032 100.706L63.9144 100.245L64.8032 99.785L64.5844 99.3931L63.7412 99.9309L63.7776 98.9327H63.3309L63.3674 99.9309L62.5242 99.3931L62.3054 99.785L63.1942 100.245L62.3054 100.706L62.5242 101.098L63.3674 100.56L63.3309 101.558H63.7776ZM71.745 102.661V98.3948H71.2391V99.4888H70.2545V99.9081H71.2391V100.569H70.2545V100.997H71.2391V102.661H71.745ZM70.4004 101.216C70.152 101.244 69.8922 101.266 69.6255 101.285V99.2745H70.2089V98.8598H67.1687V99.2745H67.7476V101.351C67.4855 101.355 67.2371 101.358 67.0092 101.358L67.073 101.791C68.0029 101.786 69.311 101.768 70.4232 101.595L70.4004 101.216ZM69.1378 99.2745V101.312C68.837 101.326 68.5339 101.337 68.2399 101.342V99.2745H69.1378ZM68.5635 102.306H68.053V103.997H71.9V103.577H68.5635V102.306ZM76.9158 104.124H77.4217V98.3948H76.9158V104.124ZM74.7508 99.4067H76.1136V98.9828H72.8865V99.4067H74.2403V100.154C74.2357 101.143 73.5201 102.228 72.6996 102.62L73.0005 103.021C73.6545 102.693 74.2334 101.964 74.5023 101.125C74.7713 101.916 75.3479 102.575 76.0179 102.88L76.3005 102.479C75.4572 102.114 74.7508 101.125 74.7508 100.154V99.4067ZM79.6162 100.131V98.6045H79.1148V100.542H83.0347V100.131H79.6162ZM78.3946 101.731H83.6409V101.321H78.3946V101.731ZM79.0783 102.315V103.983H83.0712V103.564H79.5797V102.315H79.0783ZM89.9577 104.133H90.4636V98.3948H89.9577V104.133ZM86.2155 101.604C86.9038 101.394 87.4394 100.934 87.6878 100.321C87.9453 100.902 88.4854 101.342 89.1737 101.549L89.4107 101.148C88.5652 100.909 87.9544 100.307 87.9385 99.5663H89.2831V99.1469H87.9385V98.4359H87.4371V99.1469H86.1107V99.5663H87.428C87.4143 100.339 86.8172 100.963 85.9694 101.216L86.2155 101.604ZM87.9385 101.412H87.4371V102.49C86.8423 102.511 86.2748 102.513 85.7962 102.515L85.8646 102.939C86.8992 102.939 88.3077 102.93 89.6204 102.693L89.5793 102.315C89.0529 102.395 88.49 102.442 87.9385 102.47V101.412ZM94.0642 100.02C94.4379 100.845 95.3587 101.435 96.2315 101.617L96.4594 101.198C95.4567 101.025 94.3263 100.182 94.3263 99.2244V98.7823H93.7975V99.2244C93.793 100.186 92.6763 101.025 91.6735 101.198L91.9014 101.617C92.7743 101.435 93.6881 100.843 94.0642 100.02ZM94.3126 101.554H93.8158V102.953H91.4684V103.372H96.7147V102.953H94.3126V101.554ZM103.264 100.756V98.3948H102.763V104.124H103.264V101.18H104.221V100.756H103.264ZM100.269 98.4632V99.3156H98.797V99.7349H102.206V99.3156H100.775V98.4632H100.269ZM100.529 100.209C99.7132 100.209 99.1207 100.751 99.1252 101.526C99.1207 102.301 99.7132 102.839 100.529 102.839C101.34 102.839 101.928 102.301 101.933 101.526C101.928 100.751 101.34 100.209 100.529 100.209ZM100.529 102.41C99.9958 102.415 99.6038 102.046 99.6084 101.526C99.6038 101.007 99.9958 100.633 100.529 100.633C101.058 100.633 101.445 101.007 101.45 101.526C101.445 102.046 101.058 102.415 100.529 102.41ZM105.171 99.7167V101.276H109.26V100.856H105.682V100.113H109.137V98.6273H105.157V99.0375H108.622V99.7167H105.171ZM104.524 101.877V102.287H106.885V104.133H107.391V102.287H109.77V101.877H104.524ZM110.556 103.163L110.201 104.917H110.679L111.176 103.163H110.556ZM117.782 104.133H118.288V98.3948H117.782V104.133ZM114.04 101.604C114.728 101.394 115.264 100.934 115.512 100.321C115.77 100.902 116.31 101.342 116.998 101.549L117.235 101.148C116.39 100.909 115.779 100.307 115.763 99.5663H117.107V99.1469H115.763V98.4359H115.261V99.1469H113.935V99.5663H115.252C115.239 100.339 114.642 100.963 113.794 101.216L114.04 101.604ZM115.763 101.412H115.261V102.49C114.667 102.511 114.099 102.513 113.621 102.515L113.689 102.939C114.724 102.939 116.132 102.93 117.445 102.693L117.404 102.315C116.877 102.395 116.314 102.442 115.763 102.47V101.412ZM123.705 100.697H122.866V98.5225H122.397V103.823H122.866V101.116H123.705V104.124H124.188V98.3948H123.705V100.697ZM120.008 99.5116H121.649V99.0968H119.502V102.707H119.872C120.751 102.702 121.335 102.679 122.023 102.534L121.977 102.11C121.344 102.24 120.799 102.271 120.008 102.274V99.5116ZM127.925 98.9327L126.763 99.7076V100.291L127.898 99.5389H127.925V103.6H128.508V98.9327H127.925ZM134.297 102.643V98.3994H133.791V99.1515H132.136V99.5617H133.791V100.245H132.136V100.656H133.791V102.643H134.297ZM132.82 101.148C131.945 101.312 131.184 101.355 130.395 101.358V98.8142H129.889V101.786H130.322C131.161 101.781 131.94 101.745 132.875 101.572L132.82 101.148ZM131.115 102.278H130.605V103.997H134.452V103.577H131.115V102.278ZM141.138 104.129H141.635V98.3994H141.138V104.129ZM137.938 100.364V99.1332H140.208V98.723H137.427V100.788H140.285V100.364H137.938ZM140.723 101.367C139.456 101.503 138.025 101.513 136.881 101.517L136.944 101.95C137.441 101.95 137.99 101.946 138.562 101.925V103.947H139.068V101.902C139.627 101.873 140.199 101.825 140.75 101.75L140.723 101.367ZM147.033 104.124H147.521V98.3948H147.033V104.124ZM145.144 100.628C145.08 99.548 144.608 98.878 143.911 98.878C143.168 98.878 142.685 99.6483 142.685 100.865C142.685 102.087 143.168 102.862 143.911 102.857C144.62 102.862 145.096 102.164 145.146 101.048H145.885V103.833H146.372V98.5179H145.885V100.628H145.144ZM143.911 102.379C143.451 102.383 143.154 101.795 143.159 100.865C143.154 99.9355 143.451 99.352 143.911 99.352C144.38 99.352 144.677 99.9355 144.677 100.865C144.677 101.795 144.38 102.383 143.911 102.379ZM154.198 101.444H154.695V98.3948H154.198V101.444ZM153.081 99.94C153.077 99.1834 152.452 98.6547 151.595 98.6592C150.729 98.6547 150.105 99.1834 150.105 99.94C150.105 100.697 150.729 101.225 151.595 101.225C152.452 101.225 153.077 100.697 153.081 99.94ZM150.602 99.94C150.597 99.4386 151.021 99.0786 151.595 99.0831C152.165 99.0786 152.589 99.4386 152.589 99.94C152.589 100.446 152.165 100.811 151.595 100.811C151.021 100.811 150.597 100.446 150.602 99.94ZM151.199 103.012H152.602V101.69H150.702V102.087H152.11V102.643H150.706V104.047H151.053C151.896 104.047 152.402 104.038 153.054 103.915L152.999 103.527C152.413 103.634 151.939 103.653 151.199 103.655V103.012ZM154.202 102.11V104.079H154.695V101.69H152.858V102.11H154.202ZM158.534 101.49H160.303V101.08H156.853V99.2745H160.248V98.8598H156.347V101.49H158.033V102.976H155.677V103.4H160.923V102.976H158.534V101.49ZM164.243 100.943H166.066V100.537H162.557V99.9263H165.943V98.5407H162.037V98.9509H165.437V99.5435H162.055V100.943H163.746V101.549H161.372V101.968H166.618V101.549H164.243V100.943ZM165.465 102.821V104.07H165.975V102.406H161.96V102.821H165.465ZM173.491 101.358V98.3948H172.985V99.4477H171.709V99.8671H172.985V101.358H173.491ZM170.453 99.9742C170.706 100.553 171.212 101.004 171.845 101.23L172.119 100.833C171.28 100.56 170.688 99.8716 170.692 99.1196V98.5772H170.195V99.1196C170.191 99.9582 169.598 100.678 168.737 100.966L169.01 101.371C169.689 101.127 170.207 100.626 170.453 99.9742ZM170.286 103.012H173.491V101.649H169.776V102.055H172.989V102.625H169.79V104.047H173.705V103.637H170.286V103.012ZM177.531 100.309H178.689V101.809H179.195V98.3948H178.689V99.8899H177.531V100.309ZM176.193 100.291C176.442 100.881 176.941 101.362 177.586 101.595L177.85 101.189C177.012 100.902 176.437 100.191 176.437 99.4432V99.2335H177.718V98.8142H174.632V99.2335H175.927V99.4477C175.927 100.268 175.32 101.043 174.468 101.353L174.733 101.754C175.416 101.497 175.947 100.961 176.193 100.291ZM177.294 101.987C176.1 101.987 175.371 102.379 175.375 103.053C175.371 103.728 176.1 104.115 177.294 104.12C178.484 104.115 179.213 103.728 179.213 103.053C179.213 102.379 178.484 101.987 177.294 101.987ZM177.294 103.714C176.414 103.719 175.872 103.468 175.877 103.053C175.872 102.634 176.414 102.383 177.294 102.383C178.169 102.383 178.712 102.634 178.712 103.053C178.712 103.468 178.169 103.719 177.294 103.714ZM182.123 98.9145V98.3356H181.622V98.9145H180.163V99.3201H183.577V98.9145H182.123ZM184.63 98.3721H184.124V101.544H184.63V100.186H185.496V99.7668H184.63V98.3721ZM183.249 100.519C183.244 99.94 182.702 99.5799 181.872 99.5799C181.034 99.5799 180.487 99.94 180.491 100.519C180.487 101.102 181.034 101.458 181.872 101.458C182.702 101.458 183.244 101.102 183.249 100.519ZM180.974 100.519C180.97 100.177 181.325 99.9537 181.872 99.9537C182.41 99.9537 182.766 100.177 182.77 100.519C182.766 100.865 182.41 101.08 181.872 101.08C181.325 101.08 180.97 100.865 180.974 100.519ZM184.63 103.112V101.841H180.974V102.224H184.129V102.739H180.988V104.06H184.84V103.668H181.485V103.112H184.63ZM190.126 99.6437C190.493 100.348 191.375 100.843 192.269 100.993L192.474 100.578C191.439 100.432 190.386 99.7349 190.386 98.9281V98.6H189.862V98.9281C189.862 99.7486 188.814 100.432 187.779 100.578L187.989 100.993C188.88 100.843 189.762 100.353 190.126 99.6437ZM187.51 101.622V102.046H189.862V104.124H190.359V102.046H192.733V101.622H187.51ZM199.096 98.3994V101.672H199.602V98.3994H199.096ZM196.507 101.403C197.377 101.403 198.006 100.861 198.006 100.072C198.006 99.2745 197.377 98.7321 196.507 98.7321C195.636 98.7321 195.003 99.2745 195.003 100.072C195.003 100.861 195.636 101.403 196.507 101.403ZM196.507 99.1652C197.09 99.1606 197.514 99.5389 197.514 100.072C197.514 100.605 197.09 100.979 196.507 100.984C195.919 100.979 195.495 100.605 195.5 100.072C195.495 99.5389 195.919 99.1606 196.507 99.1652ZM198.959 101.923H198.462V102.237C198.462 102.682 198.173 103.258 197.626 103.596C197.083 103.286 196.808 102.745 196.808 102.237V101.923H196.32V102.237C196.315 102.789 195.878 103.4 195.153 103.668L195.408 104.042C195.958 103.837 196.352 103.441 196.559 102.978C196.73 103.459 197.083 103.878 197.642 104.092C198.173 103.867 198.522 103.427 198.699 102.96C198.898 103.441 199.299 103.842 199.871 104.042L200.126 103.668C199.388 103.418 198.955 102.83 198.959 102.237V101.923ZM204.823 100.583H203.537C203.458 99.5116 202.895 98.8415 202.115 98.837C201.267 98.8415 200.675 99.6164 200.679 100.833C200.675 102.055 201.267 102.83 202.115 102.83C202.915 102.83 203.487 102.126 203.542 101.002H204.823V104.133H205.324V98.3948H204.823V100.583ZM202.115 102.379C201.55 102.379 201.163 101.768 201.163 100.833C201.163 99.9036 201.55 99.2928 202.115 99.2882C202.676 99.2928 203.068 99.9036 203.068 100.833C203.068 101.768 202.676 102.379 202.115 102.379ZM210.221 101.403C210.695 101.148 210.983 100.742 210.983 100.232C210.983 99.3429 210.112 98.7595 208.886 98.7549C207.664 98.7595 206.794 99.3429 206.794 100.232C206.794 100.749 207.09 101.162 207.578 101.417V102.962H206.279V103.386H211.525V102.962H210.221V101.403ZM207.282 100.232C207.282 99.589 207.947 99.1652 208.886 99.1697C209.82 99.1652 210.495 99.589 210.495 100.232C210.495 100.87 209.82 101.298 208.886 101.298C207.947 101.298 207.282 100.87 207.282 100.232ZM208.075 101.604C208.321 101.665 208.592 101.699 208.886 101.699C209.184 101.699 209.463 101.665 209.711 101.601V102.962H208.075V101.604ZM212.589 103.637C212.817 103.637 213.004 103.45 213.004 103.222C213.004 102.994 212.817 102.807 212.589 102.807C212.361 102.807 212.17 102.994 212.174 103.222C212.17 103.45 212.361 103.637 212.589 103.637Z" fill="#E8E8E8"/>
</g>
<g filter="url(#filter1_d_2355_8065)">
<rect x="160" y="139" width="160" height="139.2" rx="14" fill="white"/>
</g>
<g clip-path="url(#clip0_2355_8065)">
<path d="M239.999 211.267L236.266 215L232.533 211.267" stroke="#808080" stroke-width="0.533333"/>
</g>
<g clip-path="url(#clip1_2355_8065)">
<path d="M292.799 211.267L289.066 215L285.332 211.267" stroke="#808080" stroke-width="0.533333"/>
</g>
<g clip-path="url(#clip2_2355_8065)">
<path d="M232.533 162.2L236.266 158.467L240 162.2" stroke="#808080" stroke-width="0.533333"/>
</g>
<g clip-path="url(#clip3_2355_8065)">
<path d="M285.333 162.2L289.066 158.467L292.799 162.2" stroke="#808080" stroke-width="0.533333"/>
</g>
<rect x="170.667" y="175.267" width="33.0667" height="22.9333" rx="2.13333" fill="#E8E8E8"/>
<path d="M182.997 191.795H185.736L181.73 180.966H179.183L175.163 191.795H177.903L178.632 189.773H182.267L182.997 191.795ZM182.792 185.651C180.987 185.651 180.45 187.494 180.45 189.325C180.45 187.494 179.912 185.651 178.107 185.651C179.861 185.651 180.424 184.026 180.45 182.131C180.475 184.026 181.026 185.651 182.792 185.651ZM192.01 186.714C191.844 187.302 191.742 187.878 191.639 188.454C191.55 187.878 191.434 187.302 191.281 186.714L189.463 180.966H186.378V191.795H188.772V187.328C188.772 186.662 188.67 185.498 188.593 184.704L190.692 191.539H192.599L194.698 184.704C194.622 185.498 194.519 186.662 194.519 187.328V191.795H196.913V180.966H193.828L192.01 186.714Z" fill="#26242E"/>
<rect x="216.267" y="175.533" width="18.6667" height="22.4" rx="1.86667" fill="white" stroke="#E8E8E8" stroke-width="0.533333"/>
<path d="M227.553 191.795V180.966H225.633L222.894 182.669V184.717L224.993 183.526V191.795H227.553Z" fill="#26242E"/>
<rect x="237.6" y="175.533" width="18.6667" height="22.4" rx="1.86667" fill="white" stroke="#E8E8E8" stroke-width="0.533333"/>
<path d="M249.873 191.795V189.235C248.555 189.901 246.699 190.067 245.124 190.067L248.017 187.52C249.374 186.317 249.976 185.434 249.976 184.307C249.976 182.362 248.619 180.813 245.956 180.813C243.32 180.813 242.014 182.694 242.142 184.499H244.446C244.318 183.475 244.945 182.861 245.931 182.861C246.84 182.861 247.416 183.424 247.416 184.243C247.416 185.293 246.699 185.92 245.534 186.957L242.014 190.093V191.795H249.873Z" fill="#26242E"/>
<rect x="269.067" y="175.533" width="18.6667" height="22.4" rx="1.86667" fill="white" stroke="#E8E8E8" stroke-width="0.533333"/>
<path d="M278.6 180.813C276.078 180.813 274.44 182.362 274.44 184.781V187.994C274.44 190.413 276.078 191.962 278.6 191.962C281.121 191.962 282.76 190.413 282.76 187.994V184.781C282.76 182.362 281.121 180.813 278.6 180.813ZM274.798 186.381C276.949 186.381 278.523 184.038 278.6 181.299C278.677 184.038 280.238 186.368 282.401 186.368C280.238 186.368 278.677 188.71 278.6 191.437C278.523 188.71 276.949 186.381 274.798 186.381Z" fill="#26242E"/>
<rect x="290.4" y="175.533" width="18.6667" height="22.4" rx="1.86667" fill="white" stroke="#E8E8E8" stroke-width="0.533333"/>
<path d="M299.933 180.813C297.412 180.813 295.773 182.362 295.773 184.781V187.994C295.773 190.413 297.412 191.962 299.933 191.962C302.455 191.962 304.093 190.413 304.093 187.994V184.781C304.093 182.362 302.455 180.813 299.933 180.813ZM296.132 186.381C298.282 186.381 299.857 184.038 299.933 181.299C300.01 184.038 301.572 186.368 303.735 186.368C301.572 186.368 300.01 188.71 299.933 191.437C299.857 188.71 298.282 186.381 296.132 186.381Z" fill="#26242E"/>
<path d="M261.735 184.87C262.579 184.87 263.181 184.256 263.181 183.45C263.181 182.618 262.579 182.003 261.735 182.003C260.877 182.003 260.288 182.618 260.288 183.45C260.288 184.256 260.877 184.87 261.735 184.87ZM261.735 190.63C262.579 190.63 263.181 190.016 263.181 189.21C263.181 188.378 262.579 187.763 261.735 187.763C260.877 187.763 260.288 188.378 260.288 189.21C260.288 190.016 260.877 190.63 261.735 190.63Z" fill="#26242E"/>
<rect x="243.2" y="234.466" width="66.1333" height="28.8" rx="10.6667" fill="url(#paint0_linear_2355_8065)"/>
<rect x="170.933" y="234.733" width="65.6" height="28.2667" rx="10.4" stroke="url(#paint1_linear_2355_8065)" stroke-width="0.533333"/>
<path d="M275.18 245.19H274.116V250.978H275.18V248.461H276.152V247.577H275.18V245.19ZM273.692 248.9C273.138 248.98 272.543 249.033 271.947 249.071V248.514C272.761 248.34 273.306 247.775 273.312 247.035C273.306 246.119 272.507 245.494 271.399 245.494C270.285 245.494 269.487 246.119 269.493 247.035C269.487 247.783 270.047 248.355 270.881 248.52V249.118C270.235 249.139 269.622 249.142 269.095 249.142L269.207 249.985C270.477 249.985 272.213 249.952 273.771 249.672L273.692 248.9ZM270.48 247.035C270.474 246.561 270.86 246.298 271.399 246.295C271.941 246.298 272.31 246.561 272.313 247.035C272.31 247.495 271.944 247.766 271.399 247.766C270.86 247.766 270.474 247.495 270.48 247.035ZM270.097 250.468V252.628H275.442V251.773H271.169V250.468H270.097ZM281.736 249.887H282.808V249.03H278.353V248.187H282.631V245.674H277.28V246.528H281.579V247.341H277.292V249.887H278.27V251.051H276.494V251.92H283.43V251.051H281.736V249.887ZM280.69 249.887V251.051H279.305V249.887H280.69Z" fill="white"/>
<path d="M201.922 252.763H202.977V245.19H201.922V252.763ZM197.296 249.039C198.185 248.862 198.789 248.438 199.122 247.878C199.458 248.387 200.051 248.768 200.908 248.93L201.326 248.113C200.204 247.91 199.668 247.365 199.638 246.764H201.147V245.945H199.638V245.196H198.577V245.945H197.063V246.764H198.568C198.539 247.406 198.006 248.004 196.859 248.214L197.296 249.039ZM201.462 249.154C199.865 249.354 197.997 249.366 196.6 249.363L196.73 250.229C197.287 250.229 197.911 250.226 198.571 250.2V252.533H199.638V250.144C200.269 250.097 200.911 250.029 201.536 249.92L201.462 249.154ZM207.384 247.633C207.882 248.579 208.872 249.292 210.207 249.537L210.661 248.65C208.922 248.385 207.947 247.241 207.95 246.157V245.618H206.816V246.157C206.81 247.229 205.843 248.385 204.122 248.65L204.576 249.537C205.899 249.298 206.883 248.576 207.384 247.633ZM207.918 249.295H206.863V251.01H203.96V251.862H210.897V251.01H207.918V249.295Z" fill="#8055FA"/>
<defs>
<filter id="filter0_d_2355_8065" x="0" y="0" width="300" height="257" filterUnits="userSpaceOnUse" color-interpolation-filters="sRGB">
<feFlood flood-opacity="0" result="BackgroundImageFix"/>
<feColorMatrix in="SourceAlpha" type="matrix" values="0 0 0 0 0 0 0 0 0 0 0 0 0 0 0 0 0 0 127 0" result="hardAlpha"/>
<feOffset dy="4"/>
<feGaussianBlur stdDeviation="20"/>
<feComposite in2="hardAlpha" operator="out"/>
<feColorMatrix type="matrix" values="0 0 0 0 0.254902 0 0 0 0 0.145098 0 0 0 0 0.556863 0 0 0 0.4 0"/>
<feBlend mode="normal" in2="BackgroundImageFix" result="effect1_dropShadow_2355_8065"/>
<feBlend mode="normal" in="SourceGraphic" in2="effect1_dropShadow_2355_8065" result="shape"/>
</filter>
<filter id="filter1_d_2355_8065" x="145.067" y="126.2" width="189.867" height="169.067" filterUnits="userSpaceOnUse" color-interpolation-filters="sRGB">
<feFlood flood-opacity="0" result="BackgroundImageFix"/>
<feColorMatrix in="SourceAlpha" type="matrix" values="0 0 0 0 0 0 0 0 0 0 0 0 0 0 0 0 0 0 127 0" result="hardAlpha"/>
<feOffset dy="2.13333"/>
<feGaussianBlur stdDeviation="7.46667"/>
<feComposite in2="hardAlpha" operator="out"/>
<feColorMatrix type="matrix" values="0 0 0 0 0 0 0 0 0 0 0 0 0 0 0 0 0 0 0.08 0"/>
<feBlend mode="normal" in2="BackgroundImageFix" result="effect1_dropShadow_2355_8065"/>
<feBlend mode="normal" in="SourceGraphic" in2="effect1_dropShadow_2355_8065" result="shape"/>
</filter>
<linearGradient id="paint0_linear_2355_8065" x1="243.2" y1="248.866" x2="309.333" y2="248.866" gradientUnits="userSpaceOnUse">
<stop stop-color="#7848FF"/>
<stop offset="1" stop-color="#DA74E3"/>
</linearGradient>
<linearGradient id="paint1_linear_2355_8065" x1="170.667" y1="248.866" x2="236.8" y2="248.866" gradientUnits="userSpaceOnUse">
<stop stop-color="#7848FF"/>
<stop offset="1" stop-color="#DA74E3"/>
</linearGradient>
<clipPath id="clip0_2355_8065">
<rect width="12.8" height="12.8" fill="white" transform="translate(229.867 206.733)"/>
</clipPath>
<clipPath id="clip1_2355_8065">
<rect width="12.8" height="12.8" fill="white" transform="translate(282.667 206.733)"/>
</clipPath>
<clipPath id="clip2_2355_8065">
<rect width="12.8" height="12.8" fill="white" transform="translate(229.867 153.934)"/>
</clipPath>
<clipPath id="clip3_2355_8065">
<rect width="12.8" height="12.8" fill="white" transform="translate(282.667 153.934)"/>
</clipPath>
</defs>
</svg>
