<svg width="360" height="282" viewBox="0 0 360 282" fill="none" xmlns="http://www.w3.org/2000/svg">
<path d="M129.513 253.475H131.529V239.21H129.513V253.475ZM125.164 240.309H123.142V242.436C123.131 245.199 121.927 247.923 119.441 248.972L120.645 250.63C122.38 249.84 123.54 248.287 124.181 246.37C124.827 248.127 125.955 249.541 127.579 250.282L128.756 248.685C126.336 247.669 125.153 245.05 125.164 242.436V240.309ZM144.738 239.21H142.711V249.409H144.738V244.84H146.65V243.193H144.738V239.21ZM140.854 240.276H133.982V241.906H138.667C138.346 243.901 136.545 245.552 133.363 246.442L134.191 248.022C138.457 246.812 140.854 244.127 140.854 240.276ZM135.479 248.365V253.193H145.219V251.586H137.501V248.365H135.479ZM153.76 244.282C157.036 244.282 158.926 243.431 158.931 241.84C158.926 240.276 157.036 239.42 153.76 239.42C150.478 239.42 148.578 240.276 148.583 241.84C148.578 243.431 150.478 244.282 153.76 244.282ZM153.76 240.878C155.87 240.873 156.876 241.215 156.876 241.84C156.876 242.541 155.87 242.812 153.76 242.818C151.677 242.812 150.66 242.541 150.672 241.84C150.66 241.215 151.677 240.873 153.76 240.878ZM147.285 246.536H160.257V244.956H147.285V246.536ZM158.672 250.983V247.354H148.782V248.818H156.705V249.591H148.793V253.343H159.042V251.84H150.749V250.983H158.672ZM174.795 241.613H171.265V243.215H174.795V247.348H176.784V239.21H174.795V241.613ZM173.082 244.586C171.171 244.956 169.347 245.099 167.568 245.127V239.972H165.596V246.807H166.778C168.905 246.812 171.038 246.702 173.287 246.249L173.082 244.586ZM176.784 253.282V247.934H167.276V253.282H176.784ZM174.834 249.514V251.685H169.248V249.514H174.834ZM188.651 244.354H186.176C185.899 241.796 184.463 240.215 182.546 240.215C180.385 240.215 178.844 242.182 178.85 245.276C178.844 248.403 180.385 250.359 182.546 250.359C184.524 250.359 185.993 248.68 186.198 245.95H188.651V253.475H190.623V239.21H188.651V244.354ZM182.546 248.552C181.485 248.552 180.756 247.403 180.761 245.276C180.756 243.171 181.485 242.017 182.546 242.017C183.617 242.017 184.33 243.171 184.336 245.276C184.33 247.403 183.617 248.552 182.546 248.552ZM207.36 244.58V239.21H205.365V253.442H207.36V246.243H209.459V244.58H207.36ZM203.426 249.967V240.564H196.592V249.967H203.426ZM201.443 242.127V248.387H198.559V242.127H201.443ZM214.536 244.713C215.199 245.895 216.359 246.823 218.005 247.254L218.928 245.696C216.652 245.122 215.552 243.657 215.492 242.21H218.403V240.641H215.508V239.177H213.492V240.641H210.58V242.21H213.492C213.431 243.773 212.359 245.326 210.105 245.983L211.033 247.514C212.724 247.039 213.889 246.017 214.536 244.713ZM219.873 247.564H221.873V239.232H219.873V247.564ZM221.873 253.282V248.16H212.342V253.282H221.873ZM219.917 249.757V251.685H214.309V249.757H219.917ZM234.143 244.713H232.811V239.459H230.944V252.746H232.811V246.326H234.143V253.442H236.06V239.21H234.143V244.713ZM226.369 240.79H224.369V249.967H225.336C226.811 249.972 228.441 249.878 230.336 249.547L230.137 247.829C228.767 248.094 227.513 248.193 226.369 248.227V240.79ZM238.391 250.84L237.617 255.287H239.269L240.617 250.84H238.391ZM91.846 267.619H87.962V269.227H91.846V277.475H93.8349V263.21H91.846V267.619ZM84.5587 264.74H82.5531V274.122H83.752C85.8846 274.127 88.0669 274.011 90.3653 273.53L90.1553 271.901C88.2216 272.276 86.3653 272.425 84.5587 272.459V264.74ZM99.2487 267.099V263.718H97.2652V268.663H107.199V267.099H99.2487ZM95.6354 271.746H108.641V270.182H95.6354V271.746ZM97.1326 272.912V277.127H107.287V275.525H99.1271V272.912H97.1326ZM123.51 268.713H122.179V263.459H120.311V276.746H122.179V270.326H123.51V277.442H125.427V263.21H123.51V268.713ZM115.737 264.79H113.737V273.967H114.704C116.179 273.972 117.808 273.878 119.704 273.547L119.505 271.829C118.134 272.094 116.88 272.193 115.737 272.227V264.79ZM141.899 268.58V263.21H139.904V277.442H141.899V270.243H143.998V268.58H141.899ZM137.965 273.967V264.564H131.131V273.967H137.965ZM135.982 266.127V272.387H133.098V266.127H135.982ZM150.986 263.481C147.843 263.481 145.804 264.53 145.81 266.271C145.804 267.989 147.843 269.028 150.986 269.022C154.152 269.028 156.152 267.989 156.158 266.271C156.152 264.53 154.152 263.481 150.986 263.481ZM150.986 265.033C152.953 265.028 154.103 265.448 154.103 266.271C154.103 267.061 152.953 267.475 150.986 267.475C149.003 267.475 147.87 267.061 147.882 266.271C147.87 265.448 149.003 265.028 150.986 265.033ZM144.511 269.845V271.436H157.484V269.845H144.511ZM146.014 272.431V277.282H155.926V272.431H146.014ZM153.981 274.011V275.685H147.975V274.011H153.981ZM164.815 268.282C168.091 268.282 169.98 267.431 169.986 265.84C169.98 264.276 168.091 263.42 164.815 263.42C161.533 263.42 159.632 264.276 159.638 265.84C159.632 267.431 161.533 268.282 164.815 268.282ZM164.815 264.878C166.925 264.873 167.931 265.215 167.931 265.84C167.931 266.541 166.925 266.812 164.815 266.818C162.732 266.812 161.715 266.541 161.726 265.84C161.715 265.215 162.732 264.873 164.815 264.878ZM158.339 270.536H171.312V268.956H158.339V270.536ZM169.726 274.983V271.354H159.837V272.818H167.759V273.591H159.848V277.343H170.096V275.84H161.804V274.983H169.726ZM185.756 270.591H187.734V263.21H185.756V270.591ZM183.7 267.061C183.689 265.155 182.06 263.785 179.894 263.79C177.7 263.785 176.065 265.155 176.071 267.061C176.065 268.967 177.7 270.326 179.894 270.326C182.06 270.326 183.689 268.967 183.7 267.061ZM178.004 267.061C177.993 266.033 178.805 265.425 179.894 265.431C180.971 265.425 181.767 266.033 181.767 267.061C181.767 268.066 180.971 268.718 179.894 268.718C178.8 268.718 177.993 268.066 178.004 267.061ZM179.441 274.851H182.435V271.16H177.518V272.635H180.474V273.475H177.518V277.282H178.463C180.761 277.287 181.993 277.254 183.452 276.961L183.264 275.497C182.082 275.729 181.065 275.79 179.441 275.801V274.851ZM185.783 272.757V277.392H187.734V271.16H182.971V272.757H185.783ZM196.158 268.282C199.435 268.282 201.324 267.431 201.33 265.84C201.324 264.276 199.435 263.42 196.158 263.42C192.877 263.42 190.976 264.276 190.982 265.84C190.976 267.431 192.877 268.282 196.158 268.282ZM196.158 264.878C198.269 264.873 199.274 265.215 199.274 265.84C199.274 266.541 198.269 266.812 196.158 266.818C194.075 266.812 193.059 266.541 193.07 265.84C193.059 265.215 194.075 264.873 196.158 264.878ZM189.683 270.536H202.656V268.956H189.683V270.536ZM201.07 274.983V271.354H191.18V272.818H199.103V273.591H191.192V277.343H201.44V275.84H193.147V274.983H201.07ZM213.691 266.823C214.619 268.365 216.442 269.519 218.928 269.873L219.707 268.265C216.453 267.862 214.74 266.006 214.74 264.326V263.635H212.646V264.326C212.641 266.006 210.934 267.862 207.702 268.265L208.486 269.873C210.95 269.519 212.762 268.365 213.691 266.823ZM207.199 270.95V272.575H212.657V277.442H214.63V272.575H220.171V270.95H207.199ZM234.615 263.232V271.265H236.615V263.232H234.615ZM228.819 270.768C231.035 270.773 232.703 269.354 232.703 267.37C232.703 265.359 231.035 263.95 228.819 263.95C226.598 263.95 224.924 265.359 224.93 267.37C224.924 269.354 226.598 270.773 228.819 270.768ZM228.819 265.624C229.93 265.624 230.737 266.276 230.737 267.37C230.737 268.448 229.93 269.116 228.819 269.116C227.681 269.116 226.869 268.448 226.88 267.37C226.869 266.276 227.681 265.624 228.819 265.624ZM235.179 271.851H233.217V272.337C233.212 273.398 232.698 274.619 231.521 275.448C230.366 274.669 229.886 273.486 229.886 272.337V271.851H227.947V272.337C227.935 273.729 227.14 275.138 225.272 275.785L226.25 277.227C227.554 276.773 228.427 275.917 228.935 274.856C229.4 275.95 230.234 276.873 231.571 277.354C232.842 276.856 233.67 275.906 234.134 274.807C234.632 275.906 235.521 276.773 236.88 277.227L237.847 275.785C235.958 275.199 235.168 273.829 235.179 272.337V271.851ZM245.018 268.282C248.294 268.282 250.183 267.431 250.189 265.84C250.183 264.276 248.294 263.42 245.018 263.42C241.736 263.42 239.835 264.276 239.841 265.84C239.835 267.431 241.736 268.282 245.018 268.282ZM245.018 264.878C247.128 264.873 248.134 265.215 248.134 265.84C248.134 266.541 247.128 266.812 245.018 266.818C242.935 266.812 241.918 266.541 241.929 265.84C241.918 265.215 242.935 264.873 245.018 264.878ZM238.543 270.536H251.515V268.956H238.543V270.536ZM249.929 274.983V271.354H240.04V272.818H247.962V273.591H240.051V277.343H250.3V275.84H242.007V274.983H249.929ZM262.365 268.685H259.542V270.315H262.365V277.442H264.349V263.21H262.365V268.685ZM259.619 264.707H252.896V266.271H257.603C257.31 269.381 255.824 271.635 252.233 273.403L253.249 274.961C258.222 272.503 259.608 268.994 259.619 264.707ZM279.425 266.525H277.414V263.21H275.42V277.442H277.414V272.337H279.425V270.718H277.414V268.188H279.425V266.525ZM270.022 264.215C267.845 264.215 266.26 266.182 266.271 269.276C266.26 272.403 267.845 274.359 270.022 274.359C272.193 274.359 273.762 272.403 273.773 269.276C273.762 266.182 272.193 264.215 270.022 264.215ZM270.022 272.552C268.934 272.552 268.193 271.403 268.199 269.276C268.193 267.171 268.934 266.017 270.022 266.017C271.138 266.017 271.856 267.171 271.862 269.276C271.856 271.403 271.138 272.552 270.022 272.552Z" fill="#26242E"/>
<g filter="url(#filter0_d_1974_7747)">
<rect x="40" y="36" width="280" height="100" rx="10.125" fill="url(#paint0_linear_1974_7747)"/>
</g>
<path d="M113.935 76.8325C114.391 76.8325 114.796 76.4782 114.796 75.9213C114.796 75.3475 114.391 74.9932 113.935 74.9932C113.48 74.9932 113.075 75.3475 113.075 75.9213C113.075 76.4782 113.48 76.8325 113.935 76.8325ZM113.935 83.8863C114.391 83.8863 114.796 83.5319 114.796 82.975C114.796 82.4013 114.391 82.0469 113.935 82.0469C113.48 82.0469 113.075 82.4013 113.075 82.975C113.075 83.5319 113.48 83.8863 113.935 83.8863Z" fill="white"/>
<path d="M179.56 76.8325C180.016 76.8325 180.421 76.4782 180.421 75.9213C180.421 75.3475 180.016 74.9932 179.56 74.9932C179.105 74.9932 178.7 75.3475 178.7 75.9213C178.7 76.4782 179.105 76.8325 179.56 76.8325ZM179.56 83.8863C180.016 83.8863 180.421 83.5319 180.421 82.975C180.421 82.4013 180.016 82.0469 179.56 82.0469C179.105 82.0469 178.7 82.4013 178.7 82.975C178.7 83.5319 179.105 83.8863 179.56 83.8863Z" fill="white"/>
<path d="M245.185 76.8325C245.641 76.8325 246.046 76.4782 246.046 75.9213C246.046 75.3475 245.641 74.9932 245.185 74.9932C244.73 74.9932 244.325 75.3475 244.325 75.9213C244.325 76.4782 244.73 76.8325 245.185 76.8325ZM245.185 83.8863C245.641 83.8863 246.046 83.5319 246.046 82.975C246.046 82.4013 245.641 82.0469 245.185 82.0469C244.73 82.0469 244.325 82.4013 244.325 82.975C244.325 83.5319 244.73 83.8863 245.185 83.8863Z" fill="white"/>
<path d="M145.683 106.717H144.333L141.16 118.138H141.997L145.008 107.298L148.018 118.138H148.855L145.683 106.717ZM150.88 118.138H151.69V106.717H150.88V118.138Z" fill="white"/>
<path d="M216.505 110.686H207.73V106.717H206.92V111.388H217.315V106.717H216.505V110.686ZM212.118 110.092C212.172 109.026 212.55 108.715 213.441 108.675C212.55 108.634 212.172 108.324 212.118 107.257C212.064 108.324 211.672 108.634 210.795 108.675C211.672 108.715 212.064 109.026 212.118 110.092ZM206.785 113.049V113.751H211.848V116.262H212.658V113.751H217.45V113.049H206.785ZM207.865 115.276H207.055V118.138H217.45V117.436H207.865V115.276Z" fill="white"/>
<path d="M273.312 113.953H274.176L278.618 108.58L283.059 113.953H283.923L279.522 108.499H283.95V107.797H279.023V106.312H278.213V107.797H273.285V108.499H277.713L273.312 113.953ZM273.285 117.436V118.138H283.95V117.436H279.023V113.467H278.213V117.436H273.285Z" fill="white"/>
<path d="M75.6029 109.215V109.431C75.6029 110.997 76.9934 112.063 79.1129 112.063C81.2324 112.063 82.6229 110.997 82.6229 109.431V109.215C82.6229 107.649 81.2324 106.582 79.1129 106.582C76.9934 106.582 75.6029 107.649 75.6029 109.215ZM85.2554 112.212H86.0654V106.717H85.2554V112.212ZM79.1129 111.361C77.5199 111.361 76.4129 110.632 76.4129 109.431V109.215C76.4129 108.013 77.5199 107.284 79.1129 107.284C80.7059 107.284 81.8129 108.013 81.8129 109.215V109.431C81.8129 110.632 80.7059 111.361 79.1129 111.361ZM79.1129 110.713C79.1669 109.647 79.5449 109.336 80.4359 109.296C79.5449 109.255 79.1669 108.945 79.1129 107.878C79.0589 108.945 78.6674 109.255 77.7899 109.296C78.6674 109.336 79.0589 109.647 79.1129 110.713ZM75.8054 118.138H86.2004V117.436H76.6154V115.803H86.0654V112.887H75.8054V113.589H85.2554V115.101H75.8054V118.138Z" fill="white"/>
<rect x="55.2969" y="50.457" width="51.6562" height="44.7703" rx="2.95312" fill="white" stroke="#8055FA" stroke-width="0.84375"/>
<path d="M55.75 74.5967H106.5V91.3971C106.5 93.2611 104.989 94.7721 103.125 94.7721H59.125C57.261 94.7721 55.75 93.2611 55.75 91.3971V74.5967Z" fill="#F2E6FF"/>
<path d="M73.8553 62.8855C69.8661 62.8855 67.2741 65.3357 67.2741 69.163V74.2457C67.2741 78.073 69.8661 80.5232 73.8553 80.5232C77.8446 80.5232 80.4366 78.073 80.4366 74.2457V69.163C80.4366 65.3357 77.8446 62.8855 73.8553 62.8855ZM67.8411 71.6942C71.2431 71.6942 73.7338 67.9885 73.8553 63.655C73.9768 67.9885 76.4473 71.674 79.8696 71.674C76.4473 71.674 73.9768 75.3797 73.8553 79.693C73.7338 75.3797 71.2431 71.6942 67.8411 71.6942ZM89.0428 62.8855C85.0536 62.8855 82.4616 65.3357 82.4616 69.163V74.2457C82.4616 78.073 85.0536 80.5232 89.0428 80.5232C93.0321 80.5232 95.6241 78.073 95.6241 74.2457V69.163C95.6241 65.3357 93.0321 62.8855 89.0428 62.8855ZM83.0286 71.6942C86.4306 71.6942 88.9213 67.9885 89.0428 63.655C89.1643 67.9885 91.6348 71.674 95.0571 71.674C91.6348 71.674 89.1643 75.3797 89.0428 79.693C88.9213 75.3797 86.4306 71.6942 83.0286 71.6942Z" fill="#8055FA"/>
<rect x="120.922" y="50.457" width="51.6562" height="44.7703" rx="2.95312" fill="white" stroke="#8055FA" stroke-width="0.84375"/>
<path d="M121.375 74.5967H172.125V91.3971C172.125 93.2611 170.614 94.7721 168.75 94.7721H124.75C122.886 94.7721 121.375 93.2611 121.375 91.3971V74.5967Z" fill="#F2E6FF"/>
<path d="M139.48 62.8855C135.491 62.8855 132.899 65.3357 132.899 69.163V74.2457C132.899 78.073 135.491 80.5232 139.48 80.5232C143.47 80.5232 146.062 78.073 146.062 74.2457V69.163C146.062 65.3357 143.47 62.8855 139.48 62.8855ZM133.466 71.6942C136.868 71.6942 139.359 67.9885 139.48 63.655C139.602 67.9885 142.072 71.674 145.495 71.674C142.072 71.674 139.602 75.3797 139.48 79.693C139.359 75.3797 136.868 71.6942 133.466 71.6942ZM154.668 62.8855C150.679 62.8855 148.087 65.3357 148.087 69.163V74.2457C148.087 78.073 150.679 80.5232 154.668 80.5232C158.657 80.5232 161.249 78.073 161.249 74.2457V69.163C161.249 65.3357 158.657 62.8855 154.668 62.8855ZM148.654 71.6942C152.056 71.6942 154.546 67.9885 154.668 63.655C154.789 67.9885 157.26 71.674 160.682 71.674C157.26 71.674 154.789 75.3797 154.668 79.693C154.546 75.3797 152.056 71.6942 148.654 71.6942Z" fill="#8055FA"/>
<rect x="186.547" y="50.457" width="51.6562" height="44.7703" rx="2.95312" fill="white" stroke="#8055FA" stroke-width="0.84375"/>
<path d="M187 74.5967H237.75V91.3971C237.75 93.2611 236.239 94.7721 234.375 94.7721H190.375C188.511 94.7721 187 93.2611 187 91.3971V74.5967Z" fill="#F2E6FF"/>
<path d="M205.105 62.8855C201.116 62.8855 198.524 65.3357 198.524 69.163V74.2457C198.524 78.073 201.116 80.5232 205.105 80.5232C209.095 80.5232 211.687 78.073 211.687 74.2457V69.163C211.687 65.3357 209.095 62.8855 205.105 62.8855ZM199.091 71.6942C202.493 71.6942 204.984 67.9885 205.105 63.655C205.227 67.9885 207.697 71.674 211.12 71.674C207.697 71.674 205.227 75.3797 205.105 79.693C204.984 75.3797 202.493 71.6942 199.091 71.6942ZM220.293 62.8855C216.304 62.8855 213.712 65.3357 213.712 69.163V74.2457C213.712 78.073 216.304 80.5232 220.293 80.5232C224.282 80.5232 226.874 78.073 226.874 74.2457V69.163C226.874 65.3357 224.282 62.8855 220.293 62.8855ZM214.279 71.6942C217.681 71.6942 220.171 67.9885 220.293 63.655C220.414 67.9885 222.885 71.674 226.307 71.674C222.885 71.674 220.414 75.3797 220.293 79.693C220.171 75.3797 217.681 71.6942 214.279 71.6942Z" fill="#8055FA"/>
<rect x="252.172" y="50.457" width="51.6562" height="44.7703" rx="2.95312" fill="white" stroke="#8055FA" stroke-width="0.84375"/>
<path d="M252.625 74.5967H303.375V91.3971C303.375 93.2611 301.864 94.7721 300 94.7721H256C254.136 94.7721 252.625 93.2611 252.625 91.3971V74.5967Z" fill="#F2E6FF"/>
<path d="M270.73 62.8855C266.741 62.8855 264.149 65.3357 264.149 69.163V74.2457C264.149 78.073 266.741 80.5232 270.73 80.5232C274.72 80.5232 277.312 78.073 277.312 74.2457V69.163C277.312 65.3357 274.72 62.8855 270.73 62.8855ZM264.716 71.6942C268.118 71.6942 270.609 67.9885 270.73 63.655C270.852 67.9885 273.322 71.674 276.745 71.674C273.322 71.674 270.852 75.3797 270.73 79.693C270.609 75.3797 268.118 71.6942 264.716 71.6942ZM285.918 62.8855C281.929 62.8855 279.337 65.3357 279.337 69.163V74.2457C279.337 78.073 281.929 80.5232 285.918 80.5232C289.907 80.5232 292.499 78.073 292.499 74.2457V69.163C292.499 65.3357 289.907 62.8855 285.918 62.8855ZM279.904 71.6942C283.306 71.6942 285.796 67.9885 285.918 63.655C286.039 67.9885 288.51 71.674 291.932 71.674C288.51 71.674 286.039 75.3797 285.918 79.693C285.796 75.3797 283.306 71.6942 279.904 71.6942Z" fill="#8055FA"/>
<rect x="256.364" y="115.665" width="2" height="9" transform="rotate(45 256.364 115.665)" fill="#FFEA2F"/>
<path d="M116.144 108.835L118.248 109.104C119.41 109.253 120.231 110.316 120.083 111.478V111.478C119.934 112.64 120.755 113.703 121.917 113.851V113.851C123.079 114 123.901 115.063 123.752 116.225L123.483 118.329" stroke="#FFEA2F" stroke-width="2" stroke-linecap="round" stroke-linejoin="round"/>
<path d="M51.3916 187.224L52.0247 185.199C52.3743 184.081 53.5642 183.458 54.6824 183.808V183.808C55.8006 184.158 56.9905 183.535 57.3401 182.416V182.416C57.6898 181.298 58.8797 180.675 59.9979 181.025L62.0225 181.658" stroke="#D873E5" stroke-width="2" stroke-linecap="round" stroke-linejoin="round"/>
<path d="M302.011 185.606L299.984 186.231C298.865 186.577 297.677 185.949 297.332 184.83V184.83C296.986 183.711 295.799 183.083 294.679 183.429V183.429C293.56 183.774 292.372 183.147 292.027 182.027L291.401 180" stroke="#7D7AFF" stroke-width="2" stroke-linecap="round" stroke-linejoin="round"/>
<rect x="295.613" y="159.158" width="2" height="5.46251" transform="rotate(125.324 295.613 159.158)" fill="#33AA15"/>
<circle cx="102.5" cy="171.5" r="2.5" fill="#FF3087"/>
<circle cx="53.9998" cy="119" r="2" fill="#F1E5FE"/>
<path d="M256.527 156.46L262.916 154.368L262.002 160.361L256.527 156.46Z" fill="#57AEFF"/>
<path d="M98.9898 138.863L92.3061 139.58L94.4461 133.909L98.9898 138.863Z" fill="#95FF7A"/>
<g filter="url(#filter1_d_1974_7747)">
<path d="M231.106 156.2V200C231.106 202.761 228.868 205 226.106 205H133.729C130.967 205 128.729 202.761 128.729 200V156.2C128.729 153.193 130.23 150.385 132.73 148.715L174.919 120.54C177.945 118.52 181.89 118.52 184.916 120.54L227.105 148.715C229.605 150.385 231.106 153.193 231.106 156.2Z" fill="url(#paint1_linear_1974_7747)" stroke="url(#paint2_linear_1974_7747)" stroke-width="2"/>
<rect x="151" y="129.087" width="59" height="52.2248" rx="1" fill="url(#paint3_linear_1974_7747)" stroke="url(#paint4_linear_1974_7747)" stroke-width="2"/>
<g filter="url(#filter2_i_1974_7747)">
<path fill-rule="evenodd" clip-rule="evenodd" d="M179.124 159.629C175.234 159.091 169.892 154.158 168.164 151.153C166.051 147.479 166.811 142.284 170.471 140.163C173.625 138.334 177.538 139.018 179.911 141.595C182.288 139.057 186.171 138.394 189.306 140.211C192.965 142.333 193.726 147.527 191.613 151.201C189.644 154.625 182.984 160.552 179.124 159.629Z" fill="url(#paint5_linear_1974_7747)" fill-opacity="0.7"/>
</g>
<path d="M129 199.626V163.102C129 162.383 129.737 161.899 130.398 162.185L178.802 183.159C179.566 183.49 180.433 183.488 181.196 183.155L229.136 162.192C229.797 161.903 230.537 162.387 230.537 163.108V199.626C230.537 202.387 228.298 204.626 225.537 204.626H134C131.239 204.626 129 202.387 129 199.626Z" fill="url(#paint6_linear_1974_7747)" stroke="url(#paint7_linear_1974_7747)" stroke-width="2"/>
<path d="M224.892 204.626H135.108C129.961 204.626 128.172 197.787 132.659 195.266L173.632 172.246C177.587 170.025 182.413 170.025 186.368 172.246L227.341 195.266C231.828 197.787 230.039 204.626 224.892 204.626Z" fill="url(#paint8_linear_1974_7747)" stroke="url(#paint9_linear_1974_7747)" stroke-width="2"/>
</g>
<defs>
<filter id="filter0_d_1974_7747" x="0" y="0" width="360" height="180" filterUnits="userSpaceOnUse" color-interpolation-filters="sRGB">
<feFlood flood-opacity="0" result="BackgroundImageFix"/>
<feColorMatrix in="SourceAlpha" type="matrix" values="0 0 0 0 0 0 0 0 0 0 0 0 0 0 0 0 0 0 127 0" result="hardAlpha"/>
<feOffset dy="4"/>
<feGaussianBlur stdDeviation="20"/>
<feComposite in2="hardAlpha" operator="out"/>
<feColorMatrix type="matrix" values="0 0 0 0 0.254902 0 0 0 0 0.145098 0 0 0 0 0.556863 0 0 0 0.4 0"/>
<feBlend mode="normal" in2="BackgroundImageFix" result="effect1_dropShadow_1974_7747"/>
<feBlend mode="normal" in="SourceGraphic" in2="effect1_dropShadow_1974_7747" result="shape"/>
</filter>
<filter id="filter1_d_1974_7747" x="87.7285" y="82.0249" width="184.378" height="167.975" filterUnits="userSpaceOnUse" color-interpolation-filters="sRGB">
<feFlood flood-opacity="0" result="BackgroundImageFix"/>
<feColorMatrix in="SourceAlpha" type="matrix" values="0 0 0 0 0 0 0 0 0 0 0 0 0 0 0 0 0 0 127 0" result="hardAlpha"/>
<feOffset dy="4"/>
<feGaussianBlur stdDeviation="20"/>
<feComposite in2="hardAlpha" operator="out"/>
<feColorMatrix type="matrix" values="0 0 0 0 0.882933 0 0 0 0 0.303333 0 0 0 0 0.933333 0 0 0 0.2 0"/>
<feBlend mode="normal" in2="BackgroundImageFix" result="effect1_dropShadow_1974_7747"/>
<feBlend mode="normal" in="SourceGraphic" in2="effect1_dropShadow_1974_7747" result="shape"/>
</filter>
<filter id="filter2_i_1974_7747" x="167" y="139.132" width="25.7769" height="24.5933" filterUnits="userSpaceOnUse" color-interpolation-filters="sRGB">
<feFlood flood-opacity="0" result="BackgroundImageFix"/>
<feBlend mode="normal" in="SourceGraphic" in2="BackgroundImageFix" result="shape"/>
<feColorMatrix in="SourceAlpha" type="matrix" values="0 0 0 0 0 0 0 0 0 0 0 0 0 0 0 0 0 0 127 0" result="hardAlpha"/>
<feOffset dy="4"/>
<feGaussianBlur stdDeviation="3.5"/>
<feComposite in2="hardAlpha" operator="arithmetic" k2="-1" k3="1"/>
<feColorMatrix type="matrix" values="0 0 0 0 0.9125 0 0 0 0 0.224323 0 0 0 0 0.513357 0 0 0 0.45 0"/>
<feBlend mode="normal" in2="shape" result="effect1_innerShadow_1974_7747"/>
</filter>
<linearGradient id="paint0_linear_1974_7747" x1="40" y1="86" x2="320" y2="86" gradientUnits="userSpaceOnUse">
<stop stop-color="#7848FF"/>
<stop offset="1" stop-color="#DA74E3"/>
</linearGradient>
<linearGradient id="paint1_linear_1974_7747" x1="180" y1="187.913" x2="180" y2="109.923" gradientUnits="userSpaceOnUse">
<stop stop-color="#FCFCFF"/>
<stop offset="0.984447" stop-color="#FFB5E1"/>
</linearGradient>
<linearGradient id="paint2_linear_1974_7747" x1="127.729" y1="161.738" x2="232.106" y2="161.738" gradientUnits="userSpaceOnUse">
<stop stop-color="#A788FF"/>
<stop offset="1" stop-color="#F5B5FF"/>
</linearGradient>
<linearGradient id="paint3_linear_1974_7747" x1="203" y1="218.964" x2="169.262" y2="137.725" gradientUnits="userSpaceOnUse">
<stop stop-color="#C598FF"/>
<stop offset="1" stop-color="white"/>
</linearGradient>
<linearGradient id="paint4_linear_1974_7747" x1="177" y1="253.105" x2="135.004" y2="156.376" gradientUnits="userSpaceOnUse">
<stop stop-color="#A788FF"/>
<stop offset="1" stop-color="#F5B5FF"/>
</linearGradient>
<linearGradient id="paint5_linear_1974_7747" x1="179.839" y1="143.706" x2="180.001" y2="160.22" gradientUnits="userSpaceOnUse">
<stop stop-color="#FF4E83"/>
<stop offset="0.640625" stop-color="#FF3986" stop-opacity="0.307148"/>
<stop offset="1" stop-color="#FF3087" stop-opacity="0"/>
</linearGradient>
<linearGradient id="paint6_linear_1974_7747" x1="129" y1="173.227" x2="149.175" y2="187.668" gradientUnits="userSpaceOnUse">
<stop stop-color="#FDE8FF"/>
<stop offset="1" stop-color="white"/>
</linearGradient>
<linearGradient id="paint7_linear_1974_7747" x1="129" y1="183.455" x2="230.537" y2="183.455" gradientUnits="userSpaceOnUse">
<stop stop-color="#A788FF"/>
<stop offset="1" stop-color="#F5B5FF"/>
</linearGradient>
<linearGradient id="paint8_linear_1974_7747" x1="161" y1="168.669" x2="192.896" y2="199.66" gradientUnits="userSpaceOnUse">
<stop stop-color="#FDE8FF"/>
<stop offset="1" stop-color="white"/>
</linearGradient>
<linearGradient id="paint9_linear_1974_7747" x1="116" y1="186.942" x2="244" y2="186.942" gradientUnits="userSpaceOnUse">
<stop stop-color="#A788FF"/>
<stop offset="1" stop-color="#F5B5FF"/>
</linearGradient>
</defs>
</svg>
