<svg width="212" height="128" viewBox="0 0 212 128" fill="none" xmlns="http://www.w3.org/2000/svg">
<g filter="url(#filter0_d_1974_7341)">
<path fill-rule="evenodd" clip-rule="evenodd" d="M44 60C44 48.9543 52.9543 40 64 40H148C159.046 40 168 48.9543 168 60C168 71.0457 159.046 80 148 80H64C52.9543 80 44 71.0457 44 60ZM147 52C142.582 52 139 55.5817 139 60C139 64.4183 142.582 68 147 68C151.418 68 155 64.4183 155 60C155 55.5817 151.418 52 147 52ZM144.631 58.0621C144.24 57.6716 143.607 57.6716 143.216 58.0621C142.826 58.4527 142.826 59.0858 143.216 59.4763L146.293 62.5533C146.684 62.9438 147.317 62.9438 147.707 62.5533L150.784 59.4763C151.175 59.0858 151.175 58.4527 150.784 58.0621C150.394 57.6716 149.761 57.6716 149.37 58.0621L147 60.4319L144.631 58.0621ZM68.6411 57.0525C68.6411 58.7493 66.775 59.8273 64.1017 59.8273C61.4332 59.8273 59.5817 58.7493 59.5865 57.0525C59.5817 55.3267 61.4332 54.2293 64.1017 54.2293C66.775 54.2293 68.6411 55.3267 68.6411 57.0525ZM66.8379 57.0525C66.8379 56.1388 65.784 55.6264 64.1017 55.6215C62.4339 55.6264 61.3752 56.1388 61.3849 57.0525C61.3752 57.9468 62.4339 58.4496 64.1017 58.4496C65.784 58.4496 66.8379 57.9468 66.8379 57.0525ZM58.4456 62.1961V60.77H69.8255V62.1961H64.9622V66.2714H63.2364V62.1961H58.4456ZM80.9824 66.2907H79.2469V53.8087H80.9824V66.2907ZM77.1295 59.6533H73.0252V61.9399C74.9299 61.9254 76.5397 61.8239 78.3574 61.5193L78.5073 62.9358C76.4672 63.2983 74.6205 63.3757 72.3436 63.3757H71.2269V58.2804H75.3505V56.2645H71.2172V54.8577H77.1295V59.6533ZM92.2188 57.7293H94.6552V53.8087H96.3811V66.2907H94.6552V59.136H92.2188V57.7293ZM88.8203 54.7707H90.5945V56.6319C90.5896 58.9717 91.5323 61.2486 93.6014 62.143L92.5475 63.5304C91.1601 62.8633 90.2319 61.6257 89.7146 60.0884C89.178 61.7175 88.2209 63.0566 86.7996 63.7576L85.707 62.3412C87.8341 61.3743 88.8106 58.9717 88.8203 56.6319V54.7707ZM106.634 66.2907V53.8087H108.399V66.2907H106.634ZM98.6043 63.3757V54.8094H100.349V57.8308H103.032V54.8094H104.749V63.3757H98.6043ZM103.032 59.1892H100.349V61.9593H103.032V59.1892ZM120.29 61.1568C118.12 60.7265 116.51 59.5035 115.707 57.9081C114.89 59.4938 113.276 60.7217 111.12 61.1568L110.37 59.7065C113.136 59.2134 114.76 57.2604 114.77 55.4523V54.558H116.631V55.4523C116.626 57.2797 118.241 59.2279 121.059 59.7065L120.29 61.1568ZM121.465 64.7341H110.085V63.2983H121.465V64.7341ZM125.332 54.2535V57.212H132.288V58.5801H123.596V54.2535H125.332ZM133.55 61.2776H122.17V59.9095H133.55V61.2776ZM123.48 65.9862V62.2977H125.225V64.5843H132.366V65.9862H123.48Z" fill="white"/>
</g>
<defs>
<filter id="filter0_d_1974_7341" x="0" y="0" width="212" height="128" filterUnits="userSpaceOnUse" color-interpolation-filters="sRGB">
<feFlood flood-opacity="0" result="BackgroundImageFix"/>
<feColorMatrix in="SourceAlpha" type="matrix" values="0 0 0 0 0 0 0 0 0 0 0 0 0 0 0 0 0 0 127 0" result="hardAlpha"/>
<feOffset dy="4"/>
<feGaussianBlur stdDeviation="22"/>
<feComposite in2="hardAlpha" operator="out"/>
<feColorMatrix type="matrix" values="0 0 0 0 0.470588 0 0 0 0 0.282353 0 0 0 0 1 0 0 0 0.4 0"/>
<feBlend mode="normal" in2="BackgroundImageFix" result="effect1_dropShadow_1974_7341"/>
<feBlend mode="normal" in="SourceGraphic" in2="effect1_dropShadow_1974_7341" result="shape"/>
</filter>
</defs>
</svg>
