<svg width="68" height="68" fill="none" xmlns="http://www.w3.org/2000/svg"><g filter="url(#a)"><rect width="68" height="68" rx="34" fill="url(#b)" fill-opacity=".45"/></g><g filter="url(#c)"><rect x=".25" y=".25" width="67.5" height="67.5" rx="33.75" stroke="url(#d)" stroke-opacity=".25" stroke-width=".5"/></g><g filter="url(#e)"><rect width="68" height="68" rx="34" fill="url(#f)" fill-opacity=".45"/></g><g filter="url(#g)"><rect x=".25" y=".25" width="67.5" height="67.5" rx="33.75" stroke="url(#h)" stroke-opacity=".25" stroke-width=".5"/></g><g opacity=".6" filter="url(#i)"><rect x="16" y="23" width="36" height="22" rx="6" fill="url(#j)"/></g><path opacity=".8" d="M13 28a1 1 0 0 1 1-1h40a1 1 0 0 1 1 1v14a6 6 0 0 1-6 6H19a6 6 0 0 1-6-6V28Z" fill="url(#k)" fill-opacity=".1"/><path opacity=".8" d="M13 28a1 1 0 0 1 1-1h40a1 1 0 0 1 1 1v14a6 6 0 0 1-6 6H19a6 6 0 0 1-6-6V28Z" fill="url(#l)" fill-opacity=".1"/><path d="M35.941 14.895 53.35 26.5H14.65L32.06 14.895a3.5 3.5 0 0 1 3.882 0Z" fill="url(#m)" stroke="url(#n)"/><rect opacity=".8" x="21.5" y="18.5" width="25" height="25" rx="1.5" fill="url(#o)" stroke="url(#p)"/><rect opacity=".8" x="28" y="23" width="12" height="1.5" rx=".75" fill="url(#q)"/><rect opacity=".8" x="28" y="27" width="12" height="1.5" rx=".75" fill="url(#r)"/><g filter="url(#s)"><path d="M33.748 36.78 13.6 28v14a6 6 0 0 0 6 6h28.8a6 6 0 0 0 6-6V28l-20.652 8.78Z" fill="url(#t)" fill-opacity=".6"/><path d="M33.748 36.78 13.6 28v14a6 6 0 0 0 6 6h28.8a6 6 0 0 0 6-6V28l-20.652 8.78Z" stroke="url(#u)" stroke-linecap="round"/></g><path d="M35.941 33.895 53.35 45.5H14.65L32.06 33.895a3.5 3.5 0 0 1 3.882 0Z" fill="url(#v)" stroke="url(#w)"/><defs><linearGradient id="j" x1="16" y1="34" x2="52" y2="34" gradientUnits="userSpaceOnUse"><stop stop-color="#7848FF"/><stop offset="1" stop-color="#DA74E3"/></linearGradient><linearGradient id="k" x1="34" y1="27" x2="34" y2="48" gradientUnits="userSpaceOnUse"><stop stop-color="#fff"/><stop offset="1" stop-color="#FF9CE5"/></linearGradient><linearGradient id="l" x1="34" y1="27" x2="34" y2="48" gradientUnits="userSpaceOnUse"><stop stop-color="#fff"/><stop offset="1" stop-color="#FF9CE5"/></linearGradient><linearGradient id="m" x1="33.5" y1="10" x2="34" y2="27" gradientUnits="userSpaceOnUse"><stop stop-color="#fff"/><stop offset="1" stop-color="#fff" stop-opacity="0"/></linearGradient><linearGradient id="n" x1="34" y1="13" x2="34" y2="28.5" gradientUnits="userSpaceOnUse"><stop stop-color="#fff"/><stop offset="1" stop-color="#FFA9E7" stop-opacity="0"/></linearGradient><linearGradient id="o" x1="34" y1="19.793" x2="34" y2="44" gradientUnits="userSpaceOnUse"><stop stop-color="#fff"/><stop offset=".911" stop-color="#D8A6FF"/></linearGradient><linearGradient id="p" x1="21" y1="16" x2="44" y2="42.5" gradientUnits="userSpaceOnUse"><stop stop-color="#D06DFF"/><stop offset="1" stop-color="#fff"/></linearGradient><linearGradient id="q" x1="31.375" y1="24.5" x2="42.25" y2="24.5" gradientUnits="userSpaceOnUse"><stop stop-color="#886CF8"/><stop offset="1" stop-color="#D9D9D9" stop-opacity="0"/></linearGradient><linearGradient id="r" x1="31.375" y1="28.5" x2="42.25" y2="28.5" gradientUnits="userSpaceOnUse"><stop stop-color="#BD7DFD"/><stop offset="1" stop-color="#D9D9D9" stop-opacity="0"/></linearGradient><linearGradient id="t" x1="19.5" y1="36" x2="50" y2="34.5" gradientUnits="userSpaceOnUse"><stop stop-color="#EAB1FF"/><stop offset="1" stop-color="#fff" stop-opacity="0"/><stop offset="1" stop-color="#DEADF0" stop-opacity="0"/></linearGradient><linearGradient id="u" x1="13" y1="34.5" x2="53.846" y2="24.799" gradientUnits="userSpaceOnUse"><stop offset=".011" stop-color="#fff" stop-opacity=".91"/><stop offset=".467" stop-color="#fff" stop-opacity="0"/><stop offset="1" stop-color="#fff" stop-opacity=".78"/></linearGradient><linearGradient id="v" x1="34" y1="24.5" x2="34" y2="45.5" gradientUnits="userSpaceOnUse"><stop offset=".416" stop-color="#fff"/><stop offset="1" stop-color="#fff" stop-opacity="0"/></linearGradient><linearGradient id="w" x1="34" y1="43" x2="34" y2="33" gradientUnits="userSpaceOnUse"><stop stop-color="#fff" stop-opacity="0"/><stop offset="1" stop-color="#FFA9E7" stop-opacity=".79"/></linearGradient><filter id="a" x="-4" y="-4" width="76" height="76" filterUnits="userSpaceOnUse" color-interpolation-filters="sRGB"><feFlood flood-opacity="0" result="BackgroundImageFix"/><feGaussianBlur in="BackgroundImage" stdDeviation="2"/><feComposite in2="SourceAlpha" operator="in" result="effect1_backgroundBlur_1089_5713"/><feBlend in="SourceGraphic" in2="effect1_backgroundBlur_1089_5713" result="shape"/></filter><filter id="c" x="-4" y="-4" width="76" height="76" filterUnits="userSpaceOnUse" color-interpolation-filters="sRGB"><feFlood flood-opacity="0" result="BackgroundImageFix"/><feGaussianBlur in="BackgroundImage" stdDeviation="2"/><feComposite in2="SourceAlpha" operator="in" result="effect1_backgroundBlur_1089_5713"/><feBlend in="SourceGraphic" in2="effect1_backgroundBlur_1089_5713" result="shape"/></filter><filter id="e" x="-4" y="-4" width="76" height="76" filterUnits="userSpaceOnUse" color-interpolation-filters="sRGB"><feFlood flood-opacity="0" result="BackgroundImageFix"/><feGaussianBlur in="BackgroundImage" stdDeviation="2"/><feComposite in2="SourceAlpha" operator="in" result="effect1_backgroundBlur_1089_5713"/><feBlend in="SourceGraphic" in2="effect1_backgroundBlur_1089_5713" result="shape"/></filter><filter id="g" x="-4" y="-4" width="76" height="76" filterUnits="userSpaceOnUse" color-interpolation-filters="sRGB"><feFlood flood-opacity="0" result="BackgroundImageFix"/><feGaussianBlur in="BackgroundImage" stdDeviation="2"/><feComposite in2="SourceAlpha" operator="in" result="effect1_backgroundBlur_1089_5713"/><feBlend in="SourceGraphic" in2="effect1_backgroundBlur_1089_5713" result="shape"/></filter><filter id="i" x="12" y="19" width="44" height="30" filterUnits="userSpaceOnUse" color-interpolation-filters="sRGB"><feFlood flood-opacity="0" result="BackgroundImageFix"/><feBlend in="SourceGraphic" in2="BackgroundImageFix" result="shape"/><feGaussianBlur stdDeviation="2" result="effect1_foregroundBlur_1089_5713"/></filter><filter id="s" x="9.1" y="23.237" width="49.8" height="29.263" filterUnits="userSpaceOnUse" color-interpolation-filters="sRGB"><feFlood flood-opacity="0" result="BackgroundImageFix"/><feGaussianBlur in="BackgroundImage" stdDeviation="2"/><feComposite in2="SourceAlpha" operator="in" result="effect1_backgroundBlur_1089_5713"/><feBlend in="SourceGraphic" in2="effect1_backgroundBlur_1089_5713" result="shape"/></filter><radialGradient id="b" cx="0" cy="0" r="1" gradientUnits="userSpaceOnUse" gradientTransform="matrix(0 34 -34 0 34 34)"><stop offset=".479" stop-color="#fff" stop-opacity="0"/><stop offset="1" stop-color="#fff" stop-opacity=".9"/></radialGradient><radialGradient id="d" cx="0" cy="0" r="1" gradientUnits="userSpaceOnUse" gradientTransform="matrix(0 34 -34 0 34 34)"><stop offset=".479" stop-color="#fff" stop-opacity="0"/><stop offset="1" stop-color="#fff" stop-opacity=".9"/></radialGradient><radialGradient id="f" cx="0" cy="0" r="1" gradientUnits="userSpaceOnUse" gradientTransform="matrix(0 34 -34 0 34 34)"><stop offset=".479" stop-color="#fff" stop-opacity="0"/><stop offset="1" stop-color="#fff" stop-opacity=".9"/></radialGradient><radialGradient id="h" cx="0" cy="0" r="1" gradientUnits="userSpaceOnUse" gradientTransform="matrix(0 34 -34 0 34 34)"><stop offset=".479" stop-color="#fff" stop-opacity="0"/><stop offset="1" stop-color="#fff" stop-opacity=".9"/></radialGradient></defs></svg>