<svg width="68" height="68" fill="none" xmlns="http://www.w3.org/2000/svg"><g opacity=".4" filter="url(#a)"><circle cx="34" cy="34" r="34" fill="url(#b)"/></g><circle cx="34" cy="34" r="33.75" stroke="#fff" stroke-opacity=".4" stroke-width=".5"/><g filter="url(#c)"><rect x="17" y="24" width="34" height="22" rx="6" fill="url(#d)" fill-opacity=".6"/></g><g opacity=".3" filter="url(#e)"><path d="M14 25a6 6 0 0 1 6-6h28a6 6 0 0 1 6 6v18a6 6 0 0 1-6 6H20a6 6 0 0 1-6-6V25Z" fill="url(#f)" fill-opacity=".4"/></g><rect x="14.5" y="19.5" width="39" height="29" rx="5.5" stroke="url(#g)"/><path d="m53 26-16.146 7.768a6 6 0 0 1-5.138.03L15 26" stroke="url(#h)" stroke-linecap="round"/><defs><linearGradient id="d" x1="10.2" y1="27.667" x2="47.969" y2="51.836" gradientUnits="userSpaceOnUse"><stop stop-color="#7848FF"/><stop offset="1" stop-color="#DA74E3"/></linearGradient><linearGradient id="f" x1="20.5" y1="21.5" x2="30" y2="43.5" gradientUnits="userSpaceOnUse"><stop stop-color="#fff"/><stop offset="1" stop-color="#FFC1EE"/></linearGradient><linearGradient id="g" x1="12.5" y1="20.5" x2="53" y2="51.5" gradientUnits="userSpaceOnUse"><stop stop-color="#fff" stop-opacity=".83"/><stop offset=".5" stop-color="#F5B5FF"/><stop offset="1" stop-color="#fff" stop-opacity=".56"/></linearGradient><linearGradient id="h" x1="14.5" y1="26" x2="52.988" y2="31.982" gradientUnits="userSpaceOnUse"><stop stop-color="#FDF1FF"/><stop offset=".484" stop-color="#F8CAFF"/><stop offset="1" stop-color="#F7C9FF"/></linearGradient><filter id="a" x="-4" y="-4" width="76" height="76" filterUnits="userSpaceOnUse" color-interpolation-filters="sRGB"><feFlood flood-opacity="0" result="BackgroundImageFix"/><feGaussianBlur in="BackgroundImage" stdDeviation="2"/><feComposite in2="SourceAlpha" operator="in" result="effect1_backgroundBlur_1089_5706"/><feBlend in="SourceGraphic" in2="effect1_backgroundBlur_1089_5706" result="shape"/></filter><filter id="c" x="10" y="17" width="48" height="36" filterUnits="userSpaceOnUse" color-interpolation-filters="sRGB"><feFlood flood-opacity="0" result="BackgroundImageFix"/><feBlend in="SourceGraphic" in2="BackgroundImageFix" result="shape"/><feGaussianBlur stdDeviation="3.5" result="effect1_foregroundBlur_1089_5706"/></filter><filter id="e" x="14" y="19" width="40" height="30" filterUnits="userSpaceOnUse" color-interpolation-filters="sRGB"><feFlood flood-opacity="0" result="BackgroundImageFix"/><feBlend in="SourceGraphic" in2="BackgroundImageFix" result="shape"/><feColorMatrix in="SourceAlpha" values="0 0 0 0 0 0 0 0 0 0 0 0 0 0 0 0 0 0 127 0" result="hardAlpha"/><feOffset/><feGaussianBlur stdDeviation="7"/><feComposite in2="hardAlpha" operator="arithmetic" k2="-1" k3="1"/><feColorMatrix values="0 0 0 0 1 0 0 0 0 1 0 0 0 0 1 0 0 0 0.55 0"/><feBlend in2="shape" result="effect1_innerShadow_1089_5706"/></filter><radialGradient id="b" cx="0" cy="0" r="1" gradientUnits="userSpaceOnUse" gradientTransform="matrix(0 34 -34 0 34 34)"><stop offset=".432" stop-color="#fff" stop-opacity="0"/><stop offset="1" stop-color="#fff"/></radialGradient></defs></svg>